<svg width="274" height="92" viewBox="0 0 274 92" fill="none" xmlns="http://www.w3.org/2000/svg">
<path d="M51.52 44.176C56.5547 45.1147 60.6933 47.632 63.936 51.728C67.1787 55.824 68.8 60.5173 68.8 65.808C68.8 70.5867 67.6053 74.8107 65.216 78.48C62.912 82.064 59.5413 84.88 55.104 86.928C50.6667 88.976 45.4187 90 39.36 90H0.832001V0.655998H37.696C43.7547 0.655998 48.96 1.63733 53.312 3.6C57.7493 5.56267 61.0773 8.29333 63.296 11.792C65.6 15.2907 66.752 19.2587 66.752 23.696C66.752 28.9013 65.344 33.2533 62.528 36.752C59.7973 40.2507 56.128 42.7253 51.52 44.176ZM18.752 37.52H35.136C39.4027 37.52 42.688 36.5813 44.992 34.704C47.296 32.7413 48.448 29.968 48.448 26.384C48.448 22.8 47.296 20.0267 44.992 18.064C42.688 16.1013 39.4027 15.12 35.136 15.12H18.752V37.52ZM36.8 75.408C41.152 75.408 44.5227 74.384 46.912 72.336C49.3867 70.288 50.624 67.3867 50.624 63.632C50.624 59.792 49.344 56.8053 46.784 54.672C44.224 52.4533 40.768 51.344 36.416 51.344H18.752V75.408H36.8ZM141.322 53.008C141.322 55.568 141.151 57.872 140.81 59.92H88.97C89.3967 65.04 91.1887 69.0507 94.346 71.952C97.5033 74.8533 101.386 76.304 105.994 76.304C112.65 76.304 117.386 73.4453 120.202 67.728H139.53C137.482 74.5547 133.557 80.1867 127.754 84.624C121.951 88.976 114.826 91.152 106.378 91.152C99.5513 91.152 93.4073 89.6587 87.946 86.672C82.57 83.6 78.346 79.2907 75.274 73.744C72.2873 68.1973 70.794 61.7973 70.794 54.544C70.794 47.2053 72.2873 40.7627 75.274 35.216C78.2607 29.6693 82.442 25.4027 87.818 22.416C93.194 19.4293 99.3807 17.936 106.378 17.936C113.119 17.936 119.135 19.3867 124.426 22.288C129.802 25.1893 133.941 29.328 136.842 34.704C139.829 39.9947 141.322 46.096 141.322 53.008ZM122.762 47.888C122.677 43.28 121.013 39.6107 117.77 36.88C114.527 34.064 110.559 32.656 105.866 32.656C101.429 32.656 97.674 34.0213 94.602 36.752C91.6153 39.3973 89.7807 43.1093 89.098 47.888H122.762ZM212.642 53.008C212.642 55.568 212.471 57.872 212.13 59.92H160.29C160.717 65.04 162.509 69.0507 165.666 71.952C168.823 74.8533 172.706 76.304 177.314 76.304C183.97 76.304 188.706 73.4453 191.522 67.728H210.85C208.802 74.5547 204.877 80.1867 199.074 84.624C193.271 88.976 186.146 91.152 177.698 91.152C170.871 91.152 164.727 89.6587 159.266 86.672C153.89 83.6 149.666 79.2907 146.594 73.744C143.607 68.1973 142.114 61.7973 142.114 54.544C142.114 47.2053 143.607 40.7627 146.594 35.216C149.581 29.6693 153.762 25.4027 159.138 22.416C164.514 19.4293 170.701 17.936 177.698 17.936C184.439 17.936 190.455 19.3867 195.746 22.288C201.122 25.1893 205.261 29.328 208.162 34.704C211.149 39.9947 212.642 46.096 212.642 53.008ZM194.082 47.888C193.997 43.28 192.333 39.6107 189.09 36.88C185.847 34.064 181.879 32.656 177.186 32.656C172.749 32.656 168.994 34.0213 165.922 36.752C162.935 39.3973 161.101 43.1093 160.418 47.888H194.082ZM245.178 91.152C239.375 91.152 234.17 90.128 229.562 88.08C224.954 85.9467 221.285 83.088 218.554 79.504C215.909 75.92 214.458 71.952 214.202 67.6H232.25C232.591 70.3307 233.914 72.592 236.218 74.384C238.607 76.176 241.551 77.072 245.05 77.072C248.463 77.072 251.109 76.3893 252.986 75.024C254.949 73.6587 255.93 71.9093 255.93 69.776C255.93 67.472 254.735 65.7653 252.346 64.656C250.042 63.4613 246.33 62.1813 241.21 60.816C235.919 59.536 231.567 58.2133 228.154 56.848C224.826 55.4827 221.925 53.392 219.45 50.576C217.061 47.76 215.866 43.9627 215.866 39.184C215.866 35.2587 216.975 31.6747 219.194 28.432C221.498 25.1893 224.741 22.6293 228.922 20.752C233.189 18.8747 238.181 17.936 243.898 17.936C252.346 17.936 259.087 20.0693 264.122 24.336C269.157 28.5173 271.93 34.192 272.442 41.36H255.29C255.034 38.544 253.839 36.3253 251.706 34.704C249.658 32.9973 246.885 32.144 243.386 32.144C240.143 32.144 237.626 32.7413 235.834 33.936C234.127 35.1307 233.274 36.7947 233.274 38.928C233.274 41.3173 234.469 43.152 236.858 44.432C239.247 45.6267 242.959 46.864 247.994 48.144C253.114 49.424 257.338 50.7467 260.666 52.112C263.994 53.4773 266.853 55.6107 269.242 58.512C271.717 61.328 272.997 65.0827 273.082 69.776C273.082 73.872 271.93 77.5413 269.626 80.784C267.407 84.0267 264.165 86.5867 259.898 88.464C255.717 90.256 250.81 91.152 245.178 91.152Z" fill="url(#paint0_linear_3_2)"/>
<defs>
<linearGradient id="paint0_linear_3_2" x1="255" y1="-66.5" x2="71.5" y2="117" gradientUnits="userSpaceOnUse">
<stop offset="0.0200961" stop-color="#EBE62C"/>
<stop offset="1" stop-color="#FC980F"/>
</linearGradient>
</defs>
</svg>
