<svg width="131" height="114" viewBox="0 0 131 114" fill="none" xmlns="http://www.w3.org/2000/svg">
<path d="M47.3657 0L29.2314 31.2624L37.8926 45.8156H49.8017L41.1405 30.4539L52.7789 9.70213H77.1384L89.5888 30.4539L69.2893 67.9149L74.1612 76.8085L101.227 30.4539L83.905 0H47.3657Z" fill="url(#paint0_linear_5_6)"/>
<path d="M66.0413 60.6383L70.1012 52.0142H17.8636L0 82.7376L17.8636 112.383H52.7789L61.1694 98.6383L55.4855 89.2057L46.8244 103.489H22.7355L10.5558 82.7376L22.7355 60.6383H66.0413Z" fill="url(#paint1_linear_5_6)"/>
<path d="M51.4256 67.9149H61.1694L82.8223 103.489H107.994L120.174 82.7376L107.994 60.6383H90.6715L95.5434 52.0142H113.678L131 83.8156L113.678 114H78.2211L51.4256 67.9149Z" fill="url(#paint2_linear_5_6)"/>
<defs>
<linearGradient id="paint0_linear_5_6" x1="-1.12823e-06" y1="0.269504" x2="144.825" y2="123.236" gradientUnits="userSpaceOnUse">
<stop stop-color="#369AE6"/>
<stop offset="1" stop-color="#33B2BB"/>
</linearGradient>
<linearGradient id="paint1_linear_5_6" x1="-1.12823e-06" y1="0.269504" x2="144.825" y2="123.236" gradientUnits="userSpaceOnUse">
<stop stop-color="#369AE6"/>
<stop offset="1" stop-color="#33B2BB"/>
</linearGradient>
<linearGradient id="paint2_linear_5_6" x1="-1.12823e-06" y1="0.269504" x2="144.825" y2="123.236" gradientUnits="userSpaceOnUse">
<stop stop-color="#369AE6"/>
<stop offset="1" stop-color="#33B2BB"/>
</linearGradient>
</defs>
</svg>
