<svg width="550" height="550" viewBox="0 0 550 550" fill="none" xmlns="http://www.w3.org/2000/svg">
<path style="mix-blend-mode:multiply" d="M479.673 275.536H450.24L468.923 286.325L450.24 297.11H479.673L498.353 286.325L479.673 275.536Z" fill="url(#paint0_linear_107_39)"/>
<path d="M450.24 297.11L468.923 286.325V264.423L450.24 275.205V297.11Z" fill="#BBC0E6"/>
<path d="M450.24 297.11L431.558 286.325V264.423L450.24 275.205V297.11Z" fill="#CED3F8"/>
<path d="M450.24 275.205L431.558 264.423L450.24 253.64L468.923 264.423L450.24 275.205Z" fill="#F6F6FB"/>
<path style="mix-blend-mode:multiply" d="M339.885 398.769H303.664L326.655 412.046L303.664 425.318H339.885L362.873 412.046L339.885 398.769Z" fill="url(#paint1_linear_107_39)"/>
<path d="M303.664 425.318L326.655 412.046V385.093L303.664 398.361V425.318Z" fill="#E33C5C"/>
<path d="M303.664 425.318L280.672 412.046V385.093L303.664 398.361V425.318Z" fill="#FF5A72"/>
<path d="M303.664 398.361L280.672 385.093L303.664 371.822L326.655 385.093L303.664 398.361Z" fill="#FFAF6D"/>
<path style="mix-blend-mode:multiply" d="M344.635 413.693H323.797L337.024 421.331L323.797 428.966H344.635L357.859 421.331L344.635 413.693Z" fill="url(#paint2_linear_107_39)"/>
<path d="M323.797 428.966L337.024 421.331V405.825L323.797 413.458V428.966Z" fill="#423EAF"/>
<path d="M323.797 428.966L310.571 421.331V405.825L323.797 413.458V428.966Z" fill="#5652CC"/>
<path d="M323.797 413.458L310.571 405.825L323.797 398.191L337.024 405.825L323.797 413.458Z" fill="#807DFB"/>
<g style="mix-blend-mode:multiply">
<path d="M310.571 405.825L315.159 408.474L328.386 400.841L323.797 398.192L310.571 405.825Z" fill="#DAE0F5"/>
</g>
<g style="mix-blend-mode:multiply">
<path d="M317.478 425.318L315.159 408.473L310.571 405.825V421.331L317.478 425.318Z" fill="#DAE0F5"/>
</g>
<path style="mix-blend-mode:multiply" d="M80.7927 311.326H143.055V348.949H80.7927V311.326Z" fill="url(#paint3_linear_107_39)"/>
<path d="M80.7928 312.4L49.1387 294.124L80.7928 275.848L112.447 294.124L80.7928 312.4Z" fill="#F6F6FB"/>
<path d="M80.7928 348.949L49.1387 330.673V294.124L80.7928 312.399V348.949Z" fill="#CED3F8"/>
<path d="M80.7927 348.949L112.448 330.673V294.124L80.7927 312.399V348.949Z" fill="#BBC0E6"/>
<path d="M80.7927 281.97L78.2617 280.509L80.7927 279.048L83.3243 280.509L80.7927 281.97ZM86.6883 285.374L84.1577 283.913L86.6883 282.452L89.2199 283.913L86.6883 285.374ZM92.5849 288.778L90.0523 287.317L92.5849 285.855L95.114 287.317L92.5849 288.778ZM98.479 292.182L95.9483 290.72L98.479 289.258L101.011 290.72L98.479 292.182ZM104.375 295.585L101.843 294.124L104.375 292.663L106.906 294.124L104.375 295.585ZM74.8971 285.374L72.3661 283.913L74.8971 282.452L77.4287 283.913L74.8971 285.374ZM80.7927 288.778L78.2617 287.317L80.7927 285.855L83.3243 287.317L80.7927 288.778ZM86.6883 292.182L84.1577 290.72L86.6883 289.258L89.2199 290.72L86.6883 292.182ZM92.5849 295.585L90.0523 294.124L92.5849 292.663L95.114 294.124L92.5849 295.585ZM98.479 298.988L95.9483 297.527L98.479 296.066L101.011 297.527L98.479 298.988ZM69.003 288.778L66.4711 287.317L69.003 285.855L71.5346 287.317L69.003 288.778ZM74.8971 292.182L72.3661 290.72L74.8971 289.258L77.4287 290.72L74.8971 292.182ZM80.7927 295.585L78.2617 294.124L80.7927 292.663L83.3243 294.124L80.7927 295.585ZM86.6883 298.988L84.1577 297.527L86.6883 296.066L89.2199 297.527L86.6883 298.988ZM92.5849 302.391L90.0523 300.931L92.5849 299.47L95.114 300.931L92.5849 302.391ZM63.1071 292.182L60.5755 290.72L63.1071 289.258L65.6387 290.72L63.1071 292.182ZM69.003 295.585L66.4711 294.124L69.003 292.663L71.5346 294.124L69.003 295.585ZM74.8971 298.988L72.3661 297.527L74.8971 296.066L77.4287 297.527L74.8971 298.988ZM80.7927 302.391L78.2617 300.931L80.7927 299.47L83.3243 300.931L80.7927 302.391ZM86.6883 305.797L84.1577 304.334L86.6883 302.873L89.2199 304.334L86.6883 305.797ZM57.2114 295.585L54.6805 294.124L57.2114 292.663L59.7431 294.124L57.2114 295.585ZM63.1071 298.988L60.5755 297.527L63.1071 296.066L65.6387 297.527L63.1071 298.988ZM69.003 302.391L66.4711 300.931L69.003 299.47L71.5346 300.931L69.003 302.391ZM74.8971 305.797L72.3661 304.334L74.8971 302.873L77.4287 304.334L74.8971 305.797ZM80.7927 309.199L78.2617 307.739L80.7927 306.277L83.3243 307.739L80.7927 309.199ZM54.4418 303.306L51.9102 301.845V298.923L54.4418 300.384V303.306ZM60.3358 306.709L57.8058 305.249V302.325L60.3358 303.788V306.709ZM66.2314 310.114L63.7005 308.652V305.73L66.2314 307.19V310.114ZM72.1271 313.518L69.5964 312.055V309.134L72.1271 310.595V313.518ZM78.0227 316.921L75.4921 315.459V312.537L78.0227 313.998V316.921ZM54.4418 310.113L51.9102 308.652V305.73L54.4418 307.19V310.113ZM60.3358 313.517L57.8058 312.055V309.134L60.3358 310.595V313.517ZM66.2314 316.921L63.7005 315.459V312.537L66.2314 313.998V316.921ZM72.1271 320.325L69.5964 318.863V315.941L72.1271 317.402V320.325ZM78.0227 323.729L75.4921 322.267V319.344L78.0227 320.806V323.729ZM54.4418 316.92L51.9102 315.459V312.537L54.4418 313.998V316.92ZM60.3358 320.325L57.8058 318.863V315.941L60.3358 317.402V320.325ZM66.2314 323.729L63.7005 322.267V319.344L66.2314 320.806V323.729ZM72.1271 327.132L69.5964 325.67V322.749L72.1271 324.21V327.132ZM78.0227 330.536L75.4921 329.074V326.152L78.0227 327.613V330.536ZM54.4418 323.728L51.9102 322.267V319.344L54.4418 320.806V323.728ZM60.3358 327.132L57.8058 325.67V322.749L60.3358 324.21V327.132ZM66.2314 330.536L63.7005 329.074V326.152L66.2314 327.613V330.536ZM72.1271 333.941L69.5964 332.478V329.555L72.1271 331.017V333.941ZM78.0227 337.343L75.4921 335.882V332.958L78.0227 334.42V337.343ZM54.4418 330.536L51.9102 329.074V326.152L54.4418 327.613V330.536ZM60.3358 333.941L57.8058 332.478V329.555L60.3358 331.017V333.941ZM66.2314 337.343L63.7005 335.882V332.958L66.2314 334.42V337.343ZM72.1271 340.747L69.5964 339.285V336.362L72.1271 337.824V340.747ZM78.0227 344.15L75.4921 342.689V339.767L78.0227 341.229V344.15ZM107.145 303.306L109.676 301.845V298.923L107.145 300.384V303.306ZM101.25 306.709L103.781 305.249V302.325L101.25 303.788V306.709ZM95.3546 310.114L97.8856 308.652V305.73L95.3546 307.19V310.114ZM89.459 313.518L91.9896 312.055V309.134L89.459 310.595V313.518ZM83.5633 316.921L86.0949 315.459V312.537L83.5633 313.998V316.921ZM107.145 310.113L109.676 308.652V305.73L107.145 307.19V310.113ZM101.25 313.517L103.781 312.055V309.134L101.25 310.595V313.517ZM95.3546 316.921L97.8856 315.459V312.537L95.3546 313.998V316.921ZM89.459 320.325L91.9896 318.863V315.941L89.459 317.402V320.325ZM83.5633 323.729L86.0949 322.267V319.344L83.5633 320.806V323.729ZM107.145 316.92L109.676 315.459V312.537L107.145 313.998V316.92ZM101.25 320.325L103.781 318.863V315.941L101.25 317.402V320.325ZM95.3546 323.729L97.8856 322.267V319.344L95.3546 320.806V323.729ZM89.459 327.132L91.9896 325.67V322.749L89.459 324.21V327.132ZM83.5633 330.536L86.0949 329.074V326.152L83.5633 327.613V330.536ZM107.145 323.728L109.676 322.267V319.344L107.145 320.806V323.728ZM101.25 327.132L103.781 325.67V322.749L101.25 324.21V327.132ZM95.3546 330.536L97.8856 329.074V326.152L95.3546 327.613V330.536ZM89.459 333.941L91.9896 332.478V329.555L89.459 331.017V333.941ZM83.5633 337.343L86.0949 335.882V332.958L83.5633 334.42V337.343ZM107.145 330.536L109.676 329.074V326.152L107.145 327.613V330.536ZM101.25 333.941L103.781 332.478V329.555L101.25 331.017V333.941ZM95.3546 337.343L97.8856 335.882V332.958L95.3546 334.42V337.343ZM89.459 340.747L91.9896 339.285V336.362L89.459 337.824V340.747ZM83.5633 344.15L86.0949 342.689V339.767L83.5633 341.229V344.15Z" fill="#DAE0F5"/>
<path style="mix-blend-mode:multiply" d="M91.8869 282.253H86.6887L99.9154 289.892L86.6887 297.527H106.553L112.447 294.124L91.8869 282.253Z" fill="url(#paint4_linear_107_39)"/>
<path d="M86.6887 297.527L99.9154 289.892V274.386L86.6887 282.019V297.527Z" fill="#009AAA"/>
<path d="M86.6888 297.527L73.4624 289.892V274.386L86.6888 282.019V297.527Z" fill="#00B6BF"/>
<path d="M86.6888 282.019L73.4624 274.386L86.6888 266.752L99.9155 274.386L86.6888 282.019Z" fill="#00D6DC"/>
<path d="M203.773 211.3C203.773 206.993 200.72 201.708 196.99 199.553L151.805 173.467C148.075 171.315 145.023 173.076 145.023 177.384V220.493C145.023 224.802 148.074 230.087 151.805 232.24L196.99 258.327C200.72 260.481 203.773 258.721 203.773 254.415V211.3Z" fill="#F6F6FB"/>
<path d="M203.773 254.415V211.3C203.773 206.993 200.72 201.708 196.99 199.553L151.805 173.467C149.962 172.405 148.287 172.299 147.061 172.981L148.837 171.948L148.841 171.953C150.081 171.16 151.824 171.216 153.757 172.333L198.941 198.419C202.671 200.572 205.723 205.858 205.723 210.166V253.276C205.723 255.532 204.881 257.079 203.552 257.74L201.942 258.68C203.073 257.933 203.773 256.467 203.773 254.415Z" fill="url(#paint5_linear_107_39)"/>
<path d="M158.699 208.948V205.399C159.129 205.657 159.609 205.823 160.107 205.887C160.268 205.887 160.426 205.849 160.568 205.776C160.711 205.702 160.834 205.596 160.927 205.466C161.195 205.081 161.359 204.632 161.401 204.164C161.488 203.364 161.522 202.559 161.504 201.754C161.504 199.841 161.58 198.552 161.734 197.886C161.888 197.221 162.165 196.775 162.566 196.548C162.967 196.321 163.552 196.296 164.321 196.474C165.186 196.753 166.012 197.14 166.78 197.627L167.459 198.019V201.554C166.511 201.007 165.903 200.717 165.634 200.685C165.524 200.661 165.41 200.669 165.304 200.708C165.199 200.746 165.106 200.814 165.038 200.903C164.91 201.081 164.846 201.475 164.846 202.086C164.846 202.707 164.808 203.863 164.731 205.554C164.722 206.293 164.61 207.028 164.398 207.736C164.27 208.158 164.034 208.539 163.713 208.841C163.339 209.114 162.899 209.284 162.438 209.333C162.915 209.918 163.329 210.551 163.674 211.222C164.002 211.876 164.249 212.568 164.41 213.281C164.603 214.192 164.714 215.117 164.744 216.047C164.803 217.718 164.833 218.781 164.834 219.234C164.811 219.736 164.88 220.237 165.038 220.713C165.185 221.063 165.395 221.383 165.66 221.656C166.207 222.141 166.811 222.556 167.459 222.894V226.444L166.78 226.052C165.833 225.532 164.944 224.912 164.129 224.203C163.513 223.635 162.988 222.975 162.572 222.247C162.157 221.529 161.869 220.745 161.721 219.929C161.551 218.754 161.478 217.567 161.503 216.379C161.503 214.566 161.435 213.348 161.298 212.727C161.158 211.95 160.869 211.208 160.447 210.542C159.976 209.899 159.382 209.357 158.698 208.948L158.699 208.948ZM188.234 226.001C187.803 225.743 187.323 225.577 186.825 225.513C186.665 225.512 186.507 225.551 186.366 225.625C186.224 225.699 186.102 225.806 186.011 225.938C185.747 226.324 185.582 226.77 185.531 227.235C185.445 228.031 185.41 228.831 185.429 229.631C185.429 231.544 185.354 232.837 185.205 233.51C185.055 234.182 184.78 234.632 184.379 234.859C183.977 235.086 183.388 235.108 182.611 234.926C181.746 234.647 180.919 234.259 180.152 233.772L179.473 233.38V229.831C180.387 230.358 180.984 230.637 181.266 230.666C181.38 230.69 181.498 230.682 181.607 230.644C181.717 230.605 181.814 230.538 181.888 230.448C182.02 230.273 182.088 229.886 182.092 229.287C182.096 228.688 182.133 227.561 182.201 225.904C182.206 225.137 182.322 224.375 182.547 223.642C182.689 223.202 182.948 222.81 183.296 222.507C183.643 222.244 184.06 222.091 184.494 222.067C183.96 221.386 183.497 220.652 183.111 219.878C182.693 218.938 182.417 217.941 182.291 216.92C182.197 216.176 182.128 214.618 182.086 212.247C182.104 211.715 182.045 211.183 181.913 210.668C181.787 210.33 181.591 210.022 181.337 209.766C180.769 209.268 180.143 208.84 179.473 208.491V204.956L180.152 205.348C181.097 205.867 181.986 206.484 182.803 207.189C183.42 207.753 183.943 208.412 184.353 209.141C184.765 209.863 185.053 210.649 185.205 211.467C185.379 212.643 185.454 213.831 185.429 215.02C185.392 216.238 185.456 217.457 185.621 218.665C185.761 219.444 186.053 220.188 186.479 220.854C186.952 221.498 187.548 222.041 188.234 222.451V226.001ZM167.843 212.114C167.843 211.183 168.496 210.806 169.302 211.271C169.727 211.548 170.081 211.921 170.335 212.361C170.588 212.8 170.735 213.293 170.762 213.799C170.762 214.73 170.108 215.108 169.302 214.642C168.877 214.365 168.524 213.992 168.27 213.552C168.016 213.113 167.87 212.62 167.843 212.114V212.114ZM172.938 215.055C172.938 214.125 173.592 213.747 174.398 214.213C174.823 214.49 175.176 214.863 175.43 215.302C175.684 215.742 175.83 216.235 175.858 216.741C175.858 217.672 175.204 218.049 174.398 217.584C173.973 217.307 173.619 216.933 173.366 216.494C173.112 216.055 172.966 215.562 172.938 215.055Z" fill="#CED3F8"/>
<path d="M178.034 217.997C178.034 217.066 178.687 216.689 179.494 217.155C179.918 217.432 180.272 217.805 180.526 218.244C180.779 218.683 180.926 219.176 180.953 219.683C180.953 220.614 180.3 220.99 179.494 220.525C179.069 220.248 178.715 219.875 178.461 219.436C178.208 218.996 178.061 218.503 178.034 217.997V217.997Z" fill="#CED3F8"/>
<path style="mix-blend-mode:multiply" d="M500.861 235.334L493.209 230.915C490.927 229.598 485.329 228.521 480.765 228.521H298.707C294.144 228.521 198.561 288.32 198.561 288.32C196.28 289.639 196.28 291.793 198.561 293.111L337.917 373.569C339.202 374.249 340.639 374.589 342.092 374.556H345.716L443.822 317.913L447.872 315.575H500.861V235.334Z" fill="url(#paint6_linear_107_39)"/>
<path d="M438.279 308.848C438.279 311.483 436.412 312.56 434.13 311.243L294.775 230.786C292.491 229.469 290.626 226.236 290.626 223.602V118.49C290.626 115.855 292.491 114.778 294.775 116.095L434.13 196.552C436.411 197.869 438.279 201.103 438.279 203.738L438.279 308.848Z" fill="#423EAF"/>
<path d="M437.262 194.744L297.905 114.287C296.749 113.62 295.702 113.569 294.948 114.021V114.019L291.967 115.747L291.975 115.749C292.714 115.391 293.696 115.473 294.774 116.095L434.13 196.552C436.411 197.869 438.279 201.103 438.279 203.738V308.847C438.279 310.155 437.817 311.078 437.076 311.516V311.518L440.054 309.79L440.046 309.788C440.88 309.393 441.41 308.438 441.41 307.04V201.929C441.41 199.295 439.542 196.062 437.261 194.744H437.262Z" fill="url(#paint7_linear_107_39)"/>
<path d="M294.775 120.885V224.347L434.13 304.804V201.342L294.775 120.885Z" fill="white"/>
<path d="M339.631 367.623C337.35 368.94 333.616 368.94 331.335 367.623L191.978 287.166C189.698 285.849 189.698 283.693 191.978 282.375L286.966 227.535C289.246 226.218 292.98 226.218 295.262 227.535L434.619 307.993C436.9 309.309 436.9 311.464 434.619 312.782L339.631 367.623Z" fill="#F1F1F6"/>
<path d="M295.408 238.945L288.593 235.011L292 233.043L298.816 236.977L295.408 238.945ZM306.886 245.573L300.07 241.637L303.478 239.669L310.293 243.605L306.886 245.573ZM318.364 252.199L311.549 248.263L314.957 246.296L321.773 250.232L318.364 252.199ZM329.841 258.826L323.028 254.892L326.436 252.924L333.25 256.858L329.841 258.826ZM341.32 265.452L334.506 261.518L337.914 259.551L344.729 263.486L341.32 265.452ZM352.8 272.081L345.985 268.145L349.391 266.178L356.208 270.112L352.8 272.081ZM364.278 278.708L357.464 274.773L360.872 272.805L367.685 276.739L364.278 278.708ZM375.757 285.333L368.941 281.4L372.35 279.431L379.164 283.367L375.757 285.333ZM387.235 291.961L380.42 288.028L383.827 286.059L390.643 289.994L387.235 291.961ZM398.713 298.588L391.898 294.653L395.307 292.686L402.121 296.62L398.713 298.588ZM410.192 305.216L403.377 301.28L406.784 299.314L413.6 303.248L410.192 305.216ZM421.671 311.843L414.854 307.908L418.263 305.94L425.078 309.875L421.671 311.843ZM289.367 248.711L277.114 241.637L283.929 237.702L296.181 244.777L289.367 248.711ZM283.028 257.755L266.113 247.988L272.929 244.054L289.844 253.821L283.028 257.755ZM276.212 267.075L254.634 254.616L261.449 250.681L283.026 263.141L276.212 267.075ZM252.997 269.709L240.744 262.636L249.971 257.309L262.223 264.382L252.997 269.709ZM269.912 279.477L257.66 272.402L266.885 267.075L279.14 274.149L269.912 279.477ZM286.829 289.243L274.576 282.17L283.803 276.841L296.055 283.916L286.829 289.243ZM345.153 322.918L332.901 315.841L342.127 310.515L354.382 317.59L345.153 322.918ZM373.822 339.469L349.79 325.593L359.016 320.267L383.049 334.141L373.822 339.469ZM328.266 313.167L291.493 291.934L300.719 286.608L337.493 307.84L328.266 313.167ZM304.058 257.193L294.03 251.404L300.844 247.469L310.873 253.258L304.058 257.193ZM297.719 266.237L287.69 260.447L294.506 256.512L304.534 262.301L297.719 266.237ZM291.217 275.375L281.19 269.586L288.006 265.652L298.034 271.441L291.217 275.375ZM305.909 283.856L295.881 278.067L302.696 274.132L312.724 279.922L305.909 283.856ZM320.597 292.337L310.571 286.548L317.386 282.615L327.413 288.404L320.597 292.337ZM335.29 300.821L325.262 295.032L332.076 291.095L342.104 296.885L335.29 300.821ZM349.98 309.302L339.953 303.511L346.768 299.577L356.794 305.368L349.98 309.302ZM364.67 317.783L354.643 311.994L361.458 308.057L371.485 313.847L364.67 317.783ZM388.026 331.268L369.333 320.475L376.148 316.541L394.841 327.333L388.026 331.268ZM312.41 274.718L302.383 268.93L309.198 264.994L319.225 270.783L312.41 274.718ZM327.101 283.2L317.073 277.409L323.889 273.475L333.916 279.266L327.101 283.2ZM341.789 291.682L331.763 285.893L338.578 281.956L348.606 287.747L341.789 291.682ZM356.481 300.163L346.453 294.374L353.27 290.439L363.296 296.228L356.481 300.163ZM371.172 308.646L361.143 302.855L367.96 298.919L377.988 304.71L371.172 308.646ZM399.19 324.822L375.834 311.336L382.65 307.402L406.007 320.886L399.19 324.822ZM318.748 265.674L308.72 259.885L315.536 255.951L325.563 261.74L318.748 265.674ZM333.439 274.155L323.411 268.366L330.226 264.432L340.254 270.22L333.439 274.155ZM348.128 282.637L338.102 276.847L344.916 272.916L354.944 278.704L348.128 282.637ZM362.818 291.12L352.791 285.33L359.606 281.394L369.634 287.184L362.818 291.12ZM377.51 299.6L367.482 293.811L374.296 289.878L384.326 295.665L377.51 299.6ZM392.2 308.082L382.173 302.293L388.988 298.359L399.015 304.148L392.2 308.082ZM410.192 318.469L396.864 310.774L403.679 306.84L417.007 314.535L410.192 318.469Z" fill="#DAE0F5"/>
<path d="M416.694 301.462L306.572 237.883L309.881 235.973L420.001 299.553L416.694 301.462Z" fill="#6B67E9"/>
<path d="M328.264 321.382L272.07 288.938L237.152 309.099L293.345 341.542L328.264 321.382Z" fill="#DAE0F5"/>
<path d="M434.619 312.782L339.631 367.623C337.82 368.669 335.095 368.881 332.904 368.266C332.889 368.261 331.544 367.743 331.334 367.623L191.979 287.166C191.827 287.078 191.68 286.982 191.538 286.878C191.532 286.872 191.525 286.867 191.517 286.862C191.48 286.834 191.449 286.807 191.414 286.779C191.335 286.718 191.258 286.653 191.184 286.586C191.147 286.553 191.112 286.518 191.078 286.484C190.994 286.402 190.914 286.315 190.84 286.225L190.811 286.192C190.806 286.184 190.799 286.177 190.795 286.171C190.716 286.068 190.643 285.961 190.578 285.849C190.397 285.547 190.293 285.206 190.275 284.854H190.267V286.862H190.283C190.27 287.738 190.828 288.616 191.979 289.281L331.335 369.738C334.661 371.388 339.411 371.066 340.826 370.756C342.239 370.446 343.51 370.092 344.993 369.769L434.619 318.024C435.773 317.358 436.341 316.478 436.327 315.598V310.413C436.317 311.272 435.747 312.129 434.619 312.782Z" fill="url(#paint8_linear_107_39)"/>
<path d="M427.355 203.235L401.695 188.42L301.549 130.601C299.967 129.689 298.673 130.435 298.673 132.263V142.207C298.673 144.035 299.967 146.277 301.549 147.19L401.695 205.009L427.355 219.823C428.937 220.737 430.232 219.99 430.232 218.164V208.217C430.232 206.39 428.937 204.149 427.355 203.235Z" fill="#FF826A"/>
<path d="M317.252 142.285L414.848 198.631V210.161L317.252 153.815V142.285Z" fill="white"/>
<path d="M417.601 201.953V203.249L426.768 208.542V207.246L417.601 201.953ZM417.601 206.382L426.768 211.675V210.379L417.601 205.086V206.382ZM417.601 209.515L426.768 214.808V213.512L417.601 208.219V209.515Z" fill="#E33C5C"/>
<path d="M308.093 138.066L310.739 139.593C309.943 138.401 308.898 137.397 307.676 136.648C304.854 135.019 302.566 136.34 302.566 139.599C302.577 140.483 302.72 141.36 302.991 142.202L303.345 140.883L308.093 138.066ZM310.819 139.713L310.117 142.333C310.072 142.533 309.959 142.711 309.796 142.835C309.633 142.959 309.431 143.022 309.226 143.012L307.569 142.965L310.775 144.816L310.27 146.702L309.124 146.04L308.77 147.36L306.644 146.133L306.998 144.813L303.113 142.569C303.954 144.98 305.681 147.298 307.676 148.45C310.498 150.079 312.786 148.758 312.786 145.499C312.786 143.61 312.016 141.484 310.819 139.713ZM306.004 142.062L307.569 142.965L308.17 140.72L306.004 142.062Z" fill="white"/>
<path d="M345.545 248.683L300.071 222.428V155.491L345.545 181.746V248.683ZM428.498 260.305L349.623 214.767V184.1L428.498 229.639V260.305ZM428.498 296.245L349.623 250.706V219.033L428.498 264.572V296.245Z" fill="#DAE0F5"/>
<path d="M326.135 203.365L323.364 201.766V198.567L322.251 197.924V201.123L319.481 199.524V200.809L322.251 202.408V205.607L323.364 206.25V203.051L326.135 204.65V203.365Z" fill="white"/>
<path d="M368.941 211.719L355.809 204.137V201.567L368.941 209.149V211.719ZM410.574 235.756L374.699 215.043V212.472L410.574 233.185V235.756ZM363.287 240.541L355.809 236.224V233.653L363.287 237.97V240.541ZM410.574 267.842L369.044 243.865V241.295L410.574 265.272V267.842ZM372.545 254.723L355.809 245.06V242.49L372.545 252.153V254.723ZM410.574 276.679L378.302 258.047V255.477L410.574 274.109V276.679Z" fill="#807DFB"/>
<path d="M335.066 156.637L334.165 156.117L335.594 161.713L336.588 162.287L337.567 159.588L338.545 163.417L339.54 163.991L340.969 160.045L340.068 159.525L339.043 162.538L338.017 158.341L337.116 157.821L336.091 160.834L335.066 156.637ZM327.982 152.547L327.081 152.027L328.51 157.623L329.504 158.197L330.483 155.498L331.462 159.327L332.456 159.901L333.885 155.955L332.984 155.435L331.959 158.448L330.934 154.251L330.033 153.731L329.008 156.744L327.982 152.547ZM320.899 148.457L319.998 147.937L321.427 153.534L322.421 154.108L323.4 151.408L324.378 155.238L325.372 155.812L326.802 151.866L325.9 151.345L324.876 154.359L323.85 150.161L322.949 149.641L321.924 152.655L320.899 148.457ZM340.676 163.913C340.687 164.116 340.745 164.312 340.846 164.487C340.948 164.663 341.089 164.812 341.258 164.922C341.316 164.966 341.384 164.993 341.456 165C341.529 165.007 341.601 164.993 341.666 164.96C341.725 164.918 341.772 164.861 341.801 164.794C341.831 164.727 341.842 164.654 341.833 164.581C341.823 164.382 341.766 164.187 341.666 164.014C341.566 163.841 341.426 163.694 341.258 163.586C341.2 163.542 341.131 163.515 341.058 163.507C340.986 163.499 340.913 163.511 340.847 163.541C340.786 163.581 340.738 163.637 340.708 163.703C340.678 163.769 340.666 163.842 340.676 163.913Z" fill="#6B67E9"/>
<g style="mix-blend-mode:multiply">
<path d="M458.432 339.433L356.823 399.695H359.587L461.2 341.031L458.432 339.433Z" fill="#DAE0F5"/>
</g>
<path d="M458.432 339.433L441.863 329.867L340.254 388.533L356.822 398.099L458.432 339.433Z" fill="#00D6DC"/>
<path d="M342.423 387.282L345.366 388.979L344.958 389.218L342.014 387.518L342.423 387.282ZM351.282 382.168L354.222 383.868L353.815 384.105L350.872 382.403L351.282 382.168ZM360.139 377.054L363.08 378.755L362.671 378.991L359.729 377.291L360.139 377.054ZM368.994 371.942L371.937 373.64L371.529 373.878L368.586 372.177L368.994 371.942ZM377.851 366.826L380.797 368.528L380.386 368.762L377.441 367.064L377.851 366.826ZM386.709 361.714L389.652 363.413L389.245 363.652L386.3 361.949L386.709 361.714ZM395.566 356.601L398.509 358.3L398.101 358.534L395.155 356.835L395.566 356.601ZM404.42 351.486L407.366 353.186L406.958 353.422L404.012 351.723L404.42 351.486ZM413.277 346.373L416.224 348.073L415.813 348.309L412.87 346.61L413.277 346.373ZM422.137 341.26L425.08 342.959L424.671 343.195L421.729 341.497L422.137 341.26ZM430.993 336.146L433.938 337.846L433.529 338.082L430.583 336.382L430.993 336.146ZM439.441 331.268L442.384 332.969L442.793 332.732L439.851 331.032L439.441 331.268Z" fill="#F6F6FB"/>
<path d="M385.825 370.278L388.441 371.789L412.861 357.69L410.243 356.18L385.825 370.278ZM356.823 399.695L340.254 390.13V388.533L356.823 398.099V399.695Z" fill="#00B6BF"/>
<path d="M458.432 341.033L356.823 399.695V398.099L458.432 339.433V341.033Z" fill="#009AAA"/>
<path d="M343.685 386.554L345.158 387.403L344.75 387.642L343.276 386.79L343.685 386.554ZM344.954 385.821L346.427 386.67L346.019 386.909L344.545 386.057L344.954 385.821ZM346.224 385.088L347.697 385.937L347.289 386.176L345.815 385.324L346.224 385.088ZM347.493 384.355L348.966 385.205L348.558 385.443L347.084 384.591L347.493 384.355ZM348.763 383.622L350.236 384.471L349.828 384.71L348.354 383.858L348.763 383.622ZM350.032 382.889L351.505 383.739L351.097 383.977L349.623 383.125L350.032 382.889ZM352.543 381.439L354.016 382.289L353.608 382.527L352.134 381.675L352.543 381.439ZM353.813 380.706L355.286 381.556L354.878 381.795L353.404 380.943L353.813 380.706ZM355.082 379.973L356.555 380.823L356.147 381.061L354.673 380.209L355.082 379.973ZM356.352 379.24L357.825 380.09L357.417 380.329L355.943 379.477L356.352 379.24ZM357.621 378.507L359.094 379.357L358.686 379.595L357.212 378.743L357.621 378.507ZM358.891 377.774L360.364 378.624L359.956 378.863L358.482 378.011L358.891 377.774ZM361.402 376.325L362.875 377.174L362.467 377.413L360.993 376.561L361.402 376.325ZM362.671 375.591L364.144 376.441L363.736 376.68L362.262 375.828L362.671 375.591ZM363.941 374.859L365.414 375.708L365.006 375.947L363.532 375.095L363.941 374.859ZM365.21 374.125L366.683 374.975L366.275 375.214L364.801 374.362L365.21 374.125ZM366.48 373.393L367.953 374.242L367.545 374.481L366.071 373.629L366.48 373.393ZM367.749 372.66L369.222 373.509L368.814 373.748L367.34 372.896L367.749 372.66ZM370.26 371.21L371.733 372.059L371.325 372.298L369.851 371.446L370.26 371.21ZM371.53 370.477L373.003 371.327L372.595 371.565L371.121 370.713L371.53 370.477ZM372.799 369.744L374.272 370.593L373.864 370.832L372.39 369.98L372.799 369.744ZM374.069 369.011L375.542 369.861L375.134 370.099L373.66 369.247L374.069 369.011ZM375.338 368.278L376.811 369.128L376.403 369.367L374.929 368.514L375.338 368.278ZM376.608 367.545L378.081 368.395L377.673 368.633L376.199 367.781L376.608 367.545ZM379.119 366.095L380.592 366.945L380.184 367.183L378.71 366.331L379.119 366.095ZM380.388 365.362L381.862 366.212L381.453 366.451L379.979 365.599L380.388 365.362ZM381.658 364.629L383.131 365.479L382.723 365.718L381.249 364.865L381.658 364.629ZM382.927 363.896L384.4 364.746L383.992 364.985L382.518 364.133L382.927 363.896ZM384.197 363.163L385.67 364.013L385.262 364.252L383.788 363.4L384.197 363.163ZM385.466 362.431L386.94 363.28L386.531 363.519L385.058 362.667L385.466 362.431ZM387.978 360.981L389.451 361.83L389.043 362.069L387.569 361.217L387.978 360.981ZM389.247 360.248L390.72 361.097L390.312 361.336L388.838 360.484L389.247 360.248ZM390.517 359.515L391.99 360.364L391.582 360.603L390.108 359.751L390.517 359.515ZM391.786 358.782L393.259 359.631L392.851 359.87L391.377 359.018L391.786 358.782ZM393.056 358.049L394.529 358.899L394.121 359.137L392.647 358.285L393.056 358.049ZM394.325 357.316L395.798 358.165L395.39 358.404L393.916 357.552L394.325 357.316ZM396.836 355.866L398.309 356.716L397.901 356.955L396.427 356.102L396.836 355.866ZM398.106 355.133L399.579 355.983L399.171 356.221L397.697 355.369L398.106 355.133ZM399.375 354.4L400.848 355.25L400.44 355.489L398.966 354.636L399.375 354.4ZM400.645 353.667L402.118 354.517L401.71 354.756L400.236 353.903L400.645 353.667ZM401.914 352.934L403.387 353.784L402.979 354.023L401.505 353.171L401.914 352.934ZM403.184 352.201L404.657 353.051L404.249 353.29L402.775 352.437L403.184 352.201ZM405.695 350.751L407.168 351.601L406.76 351.84L405.286 350.988L405.695 350.751ZM406.964 350.019L408.437 350.868L408.029 351.107L406.555 350.255L406.964 350.019ZM408.234 349.285L409.707 350.135L409.299 350.374L407.825 349.522L408.234 349.285ZM409.503 348.553L410.976 349.402L410.568 349.641L409.094 348.789L409.503 348.553ZM410.773 347.82L412.246 348.669L411.838 348.908L410.364 348.056L410.773 347.82ZM412.042 347.087L413.515 347.936L413.107 348.175L411.633 347.323L412.042 347.087ZM414.553 345.637L416.026 346.487L415.618 346.725L414.144 345.873L414.553 345.637ZM415.823 344.904L417.296 345.753L416.888 345.992L415.414 345.14L415.823 344.904ZM417.092 344.171L418.565 345.021L418.157 345.259L416.683 344.407L417.092 344.171ZM418.362 343.438L419.835 344.288L419.427 344.527L417.953 343.674L418.362 343.438ZM419.631 342.705L421.104 343.555L420.696 343.793L419.222 342.941L419.631 342.705ZM420.901 341.972L422.374 342.822L421.966 343.061L420.492 342.208L420.901 341.972ZM423.412 340.522L424.885 341.372L424.477 341.611L423.003 340.759L423.412 340.522ZM424.681 339.789L426.154 340.639L425.746 340.878L424.272 340.026L424.681 339.789ZM425.951 339.057L427.424 339.906L427.016 340.145L425.542 339.293L425.951 339.057ZM427.22 338.323L428.694 339.173L428.285 339.412L426.811 338.56L427.22 338.323ZM428.49 337.591L429.963 338.44L429.555 338.679L428.081 337.827L428.49 337.591ZM429.759 336.858L431.233 337.707L430.824 337.946L429.35 337.094L429.759 336.858ZM432.27 335.408L433.744 336.257L433.335 336.496L431.861 335.644L432.27 335.408ZM433.54 334.675L435.013 335.525L434.605 335.763L433.131 334.911L433.54 334.675ZM434.809 333.942L436.283 334.792L435.874 335.03L434.4 334.178L434.809 333.942ZM436.079 333.209L437.552 334.059L437.144 334.297L435.67 333.445L436.079 333.209ZM437.348 332.476L438.822 333.326L438.413 333.564L436.939 332.712L437.348 332.476ZM438.618 331.743L440.091 332.593L439.683 332.831L438.209 331.979L438.618 331.743Z" fill="#F6F6FB"/>
<path style="mix-blend-mode:multiply" d="M479.759 343.169C479.159 343.154 478.566 343.303 478.044 343.601C477.769 343.761 476.898 344.261 476.112 344.715L475.752 344.506C475.664 344.458 475.565 344.433 475.465 344.433C475.365 344.434 475.266 344.46 475.179 344.509C475.133 344.531 468.39 348.426 468.39 348.426C468.301 348.471 468.223 348.534 468.162 348.612L467.842 349.069L397.07 392.317L393.034 398.57L403.588 395.264L471.103 356.284C471.192 356.332 471.291 356.356 471.392 356.355C471.493 356.354 471.591 356.327 471.679 356.278C471.713 356.262 478.469 352.359 478.469 352.359C478.554 352.314 478.629 352.252 478.689 352.177L479.176 351.483L481.705 350.022C482.24 349.687 482.682 349.222 482.989 348.671C483.296 348.119 483.458 347.499 483.462 346.868C483.462 346.382 483.366 345.9 483.179 345.451C482.993 345.003 482.721 344.595 482.377 344.251C482.033 343.908 481.625 343.635 481.176 343.449C480.727 343.264 480.245 343.168 479.759 343.169Z" fill="url(#paint9_linear_107_39)"/>
<path d="M473.787 341.886C473.186 341.872 472.594 342.021 472.071 342.317L469.653 343.714C469.886 343.784 470.11 343.882 470.321 344.004C471.972 344.959 473.31 347.276 473.31 349.181C473.313 349.547 473.247 349.91 473.114 350.251L475.731 348.74C476.266 348.405 476.708 347.94 477.015 347.389C477.322 346.837 477.485 346.217 477.487 345.585C477.487 344.604 477.097 343.663 476.403 342.97C475.709 342.276 474.768 341.886 473.787 341.886Z" fill="url(#paint10_linear_107_39)"/>
<path d="M390.304 392.623C390.585 392.806 390.819 393.054 390.987 393.345C391.155 393.636 391.252 393.963 391.271 394.299C391.271 394.672 391.108 394.909 390.865 394.968L397.612 393.982L399.056 391.929L397.612 388.212L394.73 386.547L389.544 392.619C389.653 392.537 389.787 392.492 389.924 392.493C390.061 392.493 390.195 392.539 390.304 392.623Z" fill="url(#paint11_linear_107_39)"/>
<path d="M390.304 392.623C390.195 392.539 390.062 392.493 389.924 392.493C389.787 392.492 389.653 392.537 389.544 392.619L389.463 392.711L387.062 395.526L390.795 394.977L390.865 394.969C391.108 394.909 391.271 394.672 391.271 394.299C391.252 393.963 391.155 393.637 390.987 393.345C390.819 393.054 390.585 392.806 390.304 392.623Z" fill="url(#paint12_linear_107_39)"/>
<path d="M462.775 353.643C462.488 353.458 462.26 353.193 462.119 352.881L460.949 349.864C460.899 349.71 460.884 349.546 460.904 349.385C460.924 349.224 460.979 349.07 461.065 348.932L462.189 347.33C462.274 347.213 462.4 347.131 462.541 347.1C462.682 347.068 462.83 347.089 462.958 347.158L465.309 348.515C465.597 348.701 465.824 348.967 465.962 349.281L467.132 352.296C467.183 352.451 467.199 352.614 467.179 352.776C467.16 352.937 467.105 353.092 467.018 353.23L465.896 354.831C465.81 354.948 465.685 355.03 465.543 355.061C465.402 355.092 465.254 355.071 465.127 355.002L462.775 353.643Z" fill="#CED3F8"/>
<path d="M466.926 352.744L399.056 391.929L397.612 388.212L465.484 349.028L466.926 352.744Z" fill="#FF826A"/>
<path d="M465.484 354.797L397.612 393.982L399.056 391.929L466.926 352.745L465.484 354.797Z" fill="#E33C5C"/>
<path d="M465.484 349.029L397.612 388.212L394.73 386.548L462.601 347.363L465.484 349.029Z" fill="#FFAF6D"/>
<path d="M473.952 348.358L472.784 345.344C472.644 345.031 472.416 344.765 472.128 344.578L469.779 343.222C469.691 343.175 469.592 343.15 469.492 343.151C469.392 343.152 469.293 343.179 469.206 343.228C469.16 343.248 462.417 347.143 462.417 347.143C462.502 347.105 462.595 347.086 462.689 347.089C462.783 347.092 462.874 347.115 462.958 347.158L465.309 348.515C465.597 348.701 465.824 348.967 465.962 349.28L467.132 352.296C467.183 352.45 467.199 352.614 467.179 352.776C467.16 352.937 467.105 353.092 467.018 353.23L465.896 354.831C465.853 354.889 465.8 354.939 465.74 354.979L472.498 351.078C472.582 351.033 472.656 350.969 472.714 350.893L473.84 349.294C473.925 349.155 473.979 349 473.999 348.838C474.018 348.676 474.002 348.513 473.952 348.358Z" fill="url(#paint13_linear_107_39)"/>
<path style="mix-blend-mode:multiply" d="M466.727 354.409C466.787 354.37 466.84 354.32 466.881 354.261L468.005 352.661C468.091 352.523 468.145 352.368 468.165 352.207C468.184 352.045 468.168 351.882 468.117 351.727L466.949 348.713C466.81 348.399 466.583 348.133 466.294 347.948L463.944 346.593C463.862 346.548 463.771 346.524 463.679 346.522C463.586 346.52 463.494 346.54 463.41 346.581C463.4 346.575 462.919 346.853 462.919 346.853C463.005 346.815 463.098 346.797 463.191 346.8C463.285 346.803 463.377 346.827 463.46 346.871L465.811 348.226C466.099 348.413 466.326 348.679 466.466 348.992L467.635 352.007C467.685 352.161 467.701 352.325 467.681 352.486C467.662 352.647 467.607 352.802 467.522 352.94L466.396 354.542C466.354 354.601 466.302 354.651 466.242 354.69L466.727 354.409Z" fill="url(#paint14_linear_107_39)"/>
<path style="mix-blend-mode:multiply" d="M467.744 353.82C467.806 353.782 467.859 353.731 467.901 353.672L469.022 352.072C469.109 351.935 469.164 351.78 469.184 351.619C469.203 351.457 469.187 351.294 469.136 351.139L467.968 348.123C467.827 347.81 467.6 347.545 467.313 347.358L464.963 346.003C464.881 345.959 464.79 345.935 464.697 345.933C464.604 345.931 464.512 345.951 464.428 345.991C464.421 345.985 463.937 346.265 463.937 346.265C464.022 346.227 464.115 346.208 464.209 346.211C464.302 346.214 464.394 346.238 464.477 346.281L466.829 347.638C467.117 347.824 467.345 348.09 467.485 348.402L468.655 351.418C468.705 351.573 468.721 351.737 468.701 351.898C468.681 352.06 468.626 352.216 468.539 352.354L467.415 353.953C467.374 354.012 467.321 354.063 467.26 354.101L467.744 353.82Z" fill="url(#paint15_linear_107_39)"/>
<path style="mix-blend-mode:multiply" d="M468.763 353.234C468.824 353.195 468.877 353.145 468.918 353.085L470.044 351.486C470.13 351.347 470.184 351.192 470.204 351.03C470.223 350.869 470.208 350.705 470.158 350.55L468.988 347.534C468.847 347.222 468.619 346.957 468.332 346.77L465.982 345.414C465.9 345.37 465.809 345.345 465.716 345.343C465.624 345.341 465.532 345.361 465.448 345.402C465.441 345.398 464.955 345.678 464.955 345.678C465.041 345.639 465.135 345.621 465.229 345.623C465.323 345.626 465.415 345.65 465.499 345.694L467.848 347.052C468.136 347.236 468.364 347.501 468.504 347.813L469.674 350.831C469.724 350.986 469.74 351.149 469.72 351.31C469.7 351.472 469.646 351.627 469.56 351.764L468.436 353.365C468.394 353.424 468.341 353.473 468.28 353.512L468.763 353.234Z" fill="url(#paint16_linear_107_39)"/>
<path style="mix-blend-mode:multiply" d="M266.802 298.72C266.802 294.938 264.122 290.296 260.847 288.405L171.001 236.533C167.726 234.642 165.046 236.189 165.046 239.971V318.178C165.046 321.96 167.726 326.602 171.001 328.492L260.847 380.365C264.122 382.256 266.802 380.709 266.802 376.927V298.72Z" fill="url(#paint17_linear_107_39)"/>
<path d="M266.802 376.927V298.72C266.802 294.938 264.122 290.296 260.847 288.405L171.001 236.533C169.383 235.598 167.911 235.506 166.835 236.106L168.514 235.136L168.518 235.142C169.606 234.445 171.138 234.495 172.834 235.475L262.68 287.347C265.956 289.238 268.635 293.88 268.635 297.662V375.869C268.635 377.848 267.897 379.207 266.728 379.79L265.196 380.674C266.189 380.017 266.802 378.73 266.802 376.927V376.927Z" fill="url(#paint18_linear_107_39)"/>
<g style="mix-blend-mode:screen">
<path d="M199.682 270.743L197.928 268.844L187.328 290.678L189.082 292.578L199.682 270.743ZM201.104 294.227L209.67 290.069L201.104 276.02L199.807 276.898L206.843 288.437L199.807 291.852L201.104 294.227ZM184.825 284.829L186.122 283.952L179.086 272.412L186.122 268.998L184.825 266.622L176.259 270.779L184.825 284.829Z" fill="#807DFB"/>
</g>
<g style="mix-blend-mode:screen">
<path d="M257.723 372.119L212.356 345.926C210.505 344.857 209.004 341.99 209.004 339.521V327.758C209.004 325.29 210.505 324.155 212.356 325.224L257.723 351.416C259.574 352.485 261.075 355.353 261.075 357.821V369.584C261.075 372.053 259.574 373.188 257.723 372.119Z" fill="#423EAF"/>
</g>
<path d="M239.061 355.636C241.281 354.354 241.281 350.196 239.06 346.35C236.84 342.503 233.239 340.425 231.019 341.707C228.798 342.989 228.798 347.146 231.019 350.993C233.239 354.839 236.84 356.918 239.061 355.636Z" fill="white"/>
<path d="M236.374 345.402V353.965L235.145 353.255V346.197L235.018 346.124L233.841 347.757L232.539 347.005L234.498 344.319L236.374 345.402Z" fill="#6B67E9"/>
<g style="mix-blend-mode:screen">
<path d="M226.929 281.851L214.57 274.715V272.081L226.929 279.217V281.851Z" fill="#6B67E9"/>
<path d="M220.528 291.765L214.57 288.325V290.96L220.528 294.4V291.765Z" fill="#CED3F8"/>
<path d="M261.075 301.566L229.021 283.059V280.424L261.075 298.93V301.566Z" fill="#FF826A"/>
<path d="M253.31 302.424L221.256 283.917V281.283L253.31 299.789V302.424Z" fill="#C4CAE9"/>
<path d="M248.417 304.941L218.753 287.814V285.179L248.417 302.305V304.941Z" fill="#6B67E9"/>
<path d="M230.22 305.556L214.57 296.52V293.886L230.22 302.921V305.556Z" fill="#00D6DC"/>
<path d="M261.075 323.371L232.311 306.764V304.129L261.075 320.736V323.371Z" fill="#6B67E9"/>
<path d="M220.982 306.387L214.57 302.685V300.05L220.982 303.753V306.387ZM261.075 329.535L223.074 307.595V304.96L261.075 326.9V329.535ZM226.929 315.985L214.57 308.849V306.215L226.929 313.351V315.985Z" fill="#CED3F8"/>
<path d="M261.075 335.699L229.021 317.193V314.558L261.075 333.064V335.699Z" fill="#6B67E9"/>
<path d="M253.31 337.584L221.256 319.077V316.442L253.31 334.949V337.584Z" fill="#FF826A"/>
<path d="M258.413 345.871L226.929 327.694V325.06L258.413 343.236V345.871Z" fill="#6B67E9"/>
</g>
<path style="mix-blend-mode:multiply" d="M177.351 378.687H200.928V383.02H177.351V378.687Z" fill="url(#paint19_linear_107_39)"/>
<path style="mix-blend-mode:multiply" d="M166.721 372.43H190.298V376.763H166.721V372.43Z" fill="url(#paint20_linear_107_39)"/>
<path d="M164.112 375.429C164.112 372.025 166.27 371.927 166.27 371.927C166.27 371.927 167.438 371.927 169.335 371.14C171.208 370.361 173.847 370.662 172.372 373.382C172.358 373.417 172.341 373.451 172.321 373.483C172.198 373.66 172.034 373.804 171.843 373.903L167.129 376.668C166.411 377.079 164.129 376.13 164.112 375.429Z" fill="url(#paint21_linear_107_39)"/>
<path d="M164.124 375.124C164.166 375.823 166.416 376.753 167.129 376.346L171.843 373.582C172.079 373.442 172.302 373.28 172.507 373.097C172.464 373.191 172.427 373.281 172.373 373.382C172.358 373.417 172.341 373.451 172.321 373.483C172.198 373.66 172.034 373.804 171.843 373.903L167.129 376.668C166.457 377.052 164.412 376.245 164.142 375.564C164.131 375.519 164.123 375.473 164.12 375.426C164.115 375.326 164.116 375.225 164.124 375.124Z" fill="#1E1C6B"/>
<path d="M164.989 371.479C165.544 371.479 167.5 371.976 167.5 371.976C167.516 372.157 167.576 372.331 167.675 372.483C167.694 372.504 167.711 372.527 167.729 372.549C168.115 372.817 168.507 373.242 167.592 373.816C167.348 373.996 167.048 374.084 166.746 374.062C166.444 374.041 166.159 373.912 165.944 373.699C165.825 373.453 165.641 373.244 165.413 373.095C165.259 372.99 165.085 372.916 164.902 372.88C164.902 372.864 164.9 372.849 164.898 372.834C164.898 372.834 164.756 371.479 164.989 371.479Z" fill="white"/>
<path d="M164.954 338.194L174.543 338.365C173.75 344.772 172.154 350.592 171.087 356.796C169.944 362.827 168.655 367.064 167.529 372.083C167.118 373.017 165.232 372.664 164.85 371.764C164.552 367.143 164.209 361.512 165.579 356.18C165.35 350.431 164.82 343.997 164.954 338.194Z" fill="#1E1C6B"/>
<path d="M174.857 381.684C174.857 378.28 177.015 378.182 177.015 378.182C177.015 378.182 178.183 378.182 180.081 377.394C181.953 376.616 184.592 376.917 183.117 379.638C183.103 379.672 183.086 379.706 183.066 379.738C182.943 379.915 182.779 380.059 182.588 380.158L177.874 382.923C177.156 383.333 174.874 382.385 174.857 381.684Z" fill="url(#paint22_linear_107_39)"/>
<path d="M174.87 381.379C174.911 382.078 177.162 383.008 177.874 382.601L182.588 379.837C182.825 379.697 183.047 379.534 183.253 379.352C183.209 379.446 183.172 379.536 183.117 379.637C183.103 379.672 183.086 379.706 183.066 379.738C182.944 379.915 182.779 380.059 182.588 380.157L177.874 382.923C177.203 383.307 175.157 382.499 174.887 381.819C174.875 381.774 174.869 381.728 174.866 381.681C174.861 381.581 174.862 381.48 174.87 381.379Z" fill="#1E1C6B"/>
<path d="M175.735 377.734C176.289 377.734 178.246 378.231 178.246 378.231C178.261 378.412 178.32 378.586 178.419 378.738C178.439 378.759 178.456 378.781 178.474 378.804C178.86 379.072 179.253 379.497 178.337 380.071C178.094 380.252 177.794 380.339 177.492 380.318C177.189 380.296 176.905 380.167 176.689 379.954C176.57 379.708 176.386 379.5 176.157 379.35C176.004 379.245 175.831 379.172 175.648 379.135C175.648 379.12 175.646 379.104 175.642 379.089C175.642 379.089 175.501 377.734 175.735 377.734Z" fill="white"/>
<path d="M171.717 353.428C171.134 350.674 164.414 350.332 164.854 339.503C166.963 339.193 177.602 344.182 179.71 343.871C179.974 350.322 179.35 356.324 179.31 362.619C179.167 368.755 178.587 373.146 178.296 378.282C178.043 379.271 176.126 379.23 175.601 378.406C174.552 373.894 173.294 368.395 173.775 362.91C173.147 359.872 172.4 356.652 171.717 353.428Z" fill="url(#paint23_linear_107_39)"/>
<path d="M169.718 318.473C162.213 323.488 161.318 333.447 165.376 339.767C165.376 339.767 164.504 325.764 169.718 318.473Z" fill="#E33C5C"/>
<path d="M169.375 345.642C173.943 348.205 178.722 348.211 180.352 345.059C179.742 339.191 179.171 334.416 180.347 328.793C179.999 325.687 179.299 323.8 179.697 321.988C177.184 321.644 175.02 317.785 173.561 317.488C167.315 316.212 164.28 327.343 164.803 339.209C165.285 342.365 167.126 344.38 169.375 345.642Z" fill="url(#paint24_linear_107_39)"/>
<path d="M170.097 318.196C171.452 317.217 171.251 316.577 171.048 315.244C170.777 314.507 170.639 313.729 170.64 312.944C170.64 309.976 172.53 307.411 174.847 307.571C179.514 307.891 178.684 310.347 178.684 313.315C178.684 316.065 177.436 317.956 175.351 318.276C175.351 318.727 176.215 319.694 176.783 320.262C174.503 322.039 172.289 320.037 171.41 319.641C170.473 319.216 169.462 318.853 170.097 318.196Z" fill="#FFD3AB"/>
<path d="M178.151 322.32C185.356 320.973 190.044 315.66 192.965 310.485L195.405 311.564C193.92 318.215 188.757 327.396 179.308 329.108C174.528 329.108 174.904 322.927 178.151 322.32Z" fill="url(#paint25_linear_107_39)"/>
<path d="M193.253 309.613L193.244 309.64C193.244 308.433 193.497 307.731 193.962 307.525C194.062 307.237 194.167 306.935 194.27 306.648C194.871 304.964 196.757 303.52 197.157 303.921C197.398 304.163 196.44 304.904 195.934 305.706C195.696 306.088 195.552 306.52 195.513 306.969C195.513 306.969 197.769 307.179 197.769 309.054C197.769 310.577 196.946 309.976 196.946 309.675C196.365 311.219 195.673 310.307 195.405 311.564L192.965 310.485C192.965 310.485 193.079 310.136 193.253 309.613Z" fill="#FFD3AB"/>
<path d="M172.795 306.82C173.397 306.509 173.94 306.67 174.275 306.454C175.072 305.967 175.827 305.656 176.25 305.887C176.46 306.028 176.658 306.186 176.842 306.36C177.258 306.774 178.109 305.891 178.313 306.962C178.365 307.237 178.389 307.516 178.384 307.795C180.377 308.051 179.396 309.866 177.794 313.363C177.792 312.796 176.586 311.484 176.586 314.006C176.586 314.277 176.789 314.33 176.61 314.69C176.432 315.048 175.286 315.953 174.531 316.709C173.476 317.763 172.857 316.818 171.114 317.007C171.126 316.443 170.966 315.889 170.655 315.417C170.488 315.122 169.531 314.184 169.531 312.546C170.884 312.713 168.478 309.044 172.795 306.82Z" fill="#1E1C6B"/>
<path d="M245.308 151.482V180.778L219.937 195.427C219.937 179.247 231.296 159.572 245.308 151.482Z" fill="#807DFB"/>
<path d="M240.517 148.716L257.862 158.73L233.007 202.972L215.146 192.661C215.146 176.481 226.505 156.806 240.517 148.716Z" fill="url(#paint26_linear_107_39)"/>
<path d="M245.308 151.482V180.778L219.937 195.427C219.937 179.247 231.296 159.572 245.308 151.482Z" fill="#00D6DC"/>
<path d="M219.936 195.426L245.307 180.778L222.843 207.362C220.99 204.363 219.936 200.342 219.936 195.426Z" fill="#807DFB"/>
<path d="M245.307 180.778V151.482C259.32 143.392 270.679 149.95 270.679 166.13C270.679 182.31 259.32 201.984 245.308 210.074C235.553 215.706 227.088 214.232 222.843 207.362L245.307 180.778Z" fill="#DCE1F4"/>
<path d="M240.517 148.716C247.565 144.647 253.94 144.287 258.537 146.989L263.008 149.571L263.005 149.578C258.433 147.076 252.193 147.507 245.308 151.482L240.518 148.716H240.517Z" fill="#F7F7FC"/>
<path d="M222.124 208.798C220.467 207.723 219.075 206.287 218.053 204.596L222.843 207.362C223.865 209.052 225.257 210.489 226.915 211.564L222.124 208.798Z" fill="#A3A9D0"/>
<path d="M218.053 204.596C216.2 201.598 215.146 197.577 215.146 192.661L219.936 195.427H219.936C219.936 200.342 220.99 204.363 222.843 207.362L218.053 204.596Z" fill="#5652CC"/>
<path style="mix-blend-mode:multiply" d="M132.724 363.772L106.742 348.77C104.597 347.532 101.088 347.532 98.942 348.771L73.3753 363.532C71.2302 364.77 71.2308 366.796 73.3746 368.035L86.9679 375.883V383.965H103.265C104.62 383.991 105.96 383.672 107.157 383.036L132.726 368.274C134.87 367.037 134.869 365.01 132.724 363.772Z" fill="url(#paint27_linear_107_39)"/>
<path d="M91.7663 373.902C89.6212 375.141 86.1116 375.14 83.9659 373.901L57.9838 358.9C55.8399 357.661 55.8393 355.635 57.9844 354.396L83.5511 339.636C85.6969 338.397 89.2061 338.397 91.3509 339.636L117.333 354.637C119.478 355.875 119.479 357.902 117.335 359.14L91.7663 373.902Z" fill="#F6F6FB"/>
<path d="M87.8676 372.952C86.839 372.978 85.8204 372.745 84.9055 372.274L58.9234 357.272C58.3933 356.966 58.2596 356.697 58.2551 356.647C58.2596 356.599 58.3939 356.33 58.9243 356.024L84.4904 341.263C85.4135 340.817 86.4254 340.586 87.4505 340.585C88.4757 340.585 89.4876 340.817 90.4108 341.263L116.394 356.264C116.925 356.57 117.059 356.84 117.064 356.89C117.059 356.938 116.925 357.207 116.395 357.512L90.8268 372.275C89.9127 372.745 88.8951 372.978 87.8676 372.952Z" fill="white"/>
<path d="M56.3786 365.696L56.3827 365.696C56.3442 366.542 56.8733 367.393 57.9846 368.035L83.967 383.036C86.1115 384.275 89.6214 384.275 91.7668 383.036L117.333 368.275C118.457 367.627 118.985 366.763 118.932 365.911L118.933 357.002C118.886 357.78 118.358 358.55 117.335 359.14L91.7665 373.902C89.6214 375.141 86.1118 375.14 83.9661 373.901L57.984 358.9C56.9251 358.288 56.3905 357.484 56.3779 356.677L56.3786 365.696Z" fill="url(#paint28_linear_107_39)"/>
<path d="M56.3786 362.507H56.3827C56.3442 363.353 56.8733 364.205 57.9846 364.846L83.967 379.848C86.1115 381.086 89.6214 381.086 91.7668 379.847L117.333 365.087C118.457 364.438 118.985 363.574 118.932 362.722L118.933 360.952C118.886 361.73 118.358 362.5 117.335 363.09L91.7665 377.852C89.6214 379.091 86.1118 379.09 83.9661 377.852L57.984 362.85C56.9251 362.238 56.3905 361.434 56.3779 360.628L56.3786 362.507Z" fill="url(#paint29_linear_107_39)"/>
<path d="M88.2094 346.658C88.9264 346.295 89.7191 346.105 90.523 346.105C91.327 346.105 92.1197 346.295 92.8367 346.658C94.115 347.396 94.1153 348.592 92.8367 349.33C92.1197 349.694 91.3271 349.883 90.5232 349.883C89.7193 349.883 88.9267 349.694 88.2097 349.33C86.9317 348.592 86.9317 347.396 88.2097 346.658H88.2094Z" fill="#FCBA06"/>
<g style="mix-blend-mode:multiply">
<path d="M90.1279 369.755L98.6521 355.789C99.2423 354.823 97.6305 353.892 95.9557 354.233L71.7666 359.154L90.1279 369.755Z" fill="#DAE0F5"/>
</g>
<g style="mix-blend-mode:multiply">
<path d="M78.5208 363.054L84.4039 353.415C84.9941 352.448 83.382 351.518 81.7075 351.858L65.0127 355.255L78.5208 363.054Z" fill="#DFE4F4"/>
</g>
<path style="mix-blend-mode:multiply" d="M272.272 425.733L224.02 397.874C223.388 397.556 222.691 397.389 221.984 397.389C221.277 397.389 220.579 397.556 219.948 397.874L206.602 405.58C205.482 406.226 205.482 407.284 206.602 407.931L252.472 434.414V436.271H256.781V436.268C257.526 436.3 258.266 436.135 258.925 435.789L272.273 428.083C273.392 427.437 273.392 426.379 272.272 425.733Z" fill="url(#paint30_linear_107_39)"/>
<path d="M219.711 395.355C219.08 395.036 218.383 394.87 217.675 394.87C216.968 394.87 216.271 395.036 215.64 395.355L202.293 403.06C201.174 403.707 201.174 404.764 202.293 405.411L217.31 414.081L234.728 404.025L219.711 395.355Z" fill="#00D6DC"/>
<path d="M215.984 403.871C215.769 403.263 216.099 402.577 216.972 402.074C218.296 401.308 220.35 401.255 221.56 401.953C222.767 402.65 222.673 403.838 221.348 404.602C220.394 405.107 219.308 405.305 218.237 405.171C219.464 406.599 219.047 408.198 217.746 408.949C217.433 408.765 213.595 406.55 213.595 406.55L209.441 404.153C210.74 403.402 213.512 403.162 215.984 403.871Z" fill="#009AAA"/>
<path d="M267.963 423.213L234.728 404.025L217.31 414.081L250.545 433.269C251.176 433.588 251.874 433.754 252.581 433.754C253.288 433.754 253.986 433.588 254.617 433.269L267.964 425.563C269.084 424.917 269.083 423.859 267.963 423.213Z" fill="#F1F1F6"/>
<path d="M202.293 405.411C201.741 405.091 201.461 404.672 201.455 404.251L201.456 406.71H201.458C201.438 407.152 201.714 407.596 202.294 407.931L217.31 416.601V414.081L202.293 405.411Z" fill="#009AAA"/>
<path d="M267.964 425.563L254.617 433.269C253.986 433.588 253.288 433.754 252.581 433.754C251.874 433.754 251.176 433.588 250.545 433.269L217.311 414.081V416.6L250.546 435.789C251.177 436.108 251.875 436.274 252.582 436.274C253.289 436.274 253.986 436.108 254.618 435.789L267.964 428.083C268.55 427.745 268.826 427.294 268.799 426.849V424.447C268.764 424.688 268.669 424.916 268.524 425.111C268.378 425.306 268.186 425.461 267.965 425.563L267.964 425.563Z" fill="url(#paint31_linear_107_39)"/>
<path d="M229.88 409.464L256.427 424.791L258.27 423.727L231.723 408.4L229.88 409.464Z" fill="url(#paint32_linear_107_39)"/>
<path d="M225.115 412.215L235.405 418.155L237.248 417.091L226.959 411.15L225.115 412.215Z" fill="url(#paint33_linear_107_39)"/>
<path d="M237.439 419.33L240.023 420.821L241.866 419.757L239.283 418.266L237.439 419.33Z" fill="url(#paint34_linear_107_39)"/>
<path style="mix-blend-mode:multiply" d="M159.986 418.81C159.802 418.494 159.589 418.195 159.352 417.917C158.488 417.059 160.478 415.625 161.377 415.106C161.394 415.106 158.757 413.585 158.757 413.585L151.014 413.592C150.592 413.002 150.364 412.295 150.363 411.57L146.647 411.568C146.646 412.174 146.399 413.528 145.373 414.12C145.141 414.253 144.886 414.34 144.621 414.378C144.096 414.481 143.577 414.604 143.076 414.749C143.054 414.748 143.031 414.744 143.01 414.738C142.508 414.594 141.994 414.47 141.469 414.367C139.809 414.117 139.468 412.29 139.472 411.558L135.756 411.557C135.755 412.163 135.508 413.518 134.482 414.11C134.25 414.242 133.996 414.329 133.731 414.367C133.211 414.467 132.695 414.591 132.186 414.738C130.475 415.106 128.234 414.093 127.34 413.574L124.705 415.095C125.598 415.614 127.572 417.05 126.698 417.905C126.456 418.183 126.241 418.482 126.054 418.8C125.953 418.987 125.797 419.139 125.607 419.234C124.582 419.825 122.243 419.965 121.193 419.965L121.187 422.117C122.45 422.116 125.604 422.319 126.028 423.281C126.212 423.598 126.425 423.897 126.664 424.176C127.528 425.032 125.537 426.466 124.639 426.985L127.257 428.508C127.364 428.446 127.472 428.387 127.582 428.33L127.275 428.508L135.015 428.515C135.428 429.104 135.649 429.805 135.649 430.524L150.253 430.535L153.893 428.513L158.674 428.517L161.31 426.996C160.415 426.477 158.443 425.042 159.315 424.187C159.463 424.014 159.6 423.833 159.728 423.645L162.179 423.648L164.813 422.127C164.815 422.127 164.828 419.977 164.828 419.977C163.473 420.029 160.411 419.773 159.986 418.81L159.986 418.81Z" fill="url(#paint35_linear_107_39)"/>
<path d="M126.916 411.134C126.914 410.299 125.442 409.247 124.705 408.819L124.724 415.095C125.459 415.524 126.932 416.575 126.934 417.411L126.916 411.134Z" fill="#F5F5FA"/>
<path d="M150.504 415.095L150.486 408.819C149.741 409.248 148.246 410.309 148.249 411.146L148.266 417.423C148.264 416.586 149.759 415.526 150.504 415.095Z" fill="#BBBFE2"/>
<path d="M132.94 418.346C135.521 416.855 139.687 416.855 142.25 418.345C143.523 419.085 144.161 420.053 144.165 421.024L144.146 414.746C144.143 413.777 143.505 412.809 142.232 412.068C139.668 410.579 135.504 410.579 132.922 412.068C131.625 412.818 130.978 413.801 130.98 414.782L130.997 421.059C130.996 420.077 131.644 419.094 132.94 418.346Z" fill="url(#paint36_linear_107_39)"/>
<path d="M127.257 422.23L124.639 420.708L124.657 426.985L127.275 428.508L127.257 422.23Z" fill="#CED2F4"/>
<path d="M150.438 426.985L150.419 420.708L147.783 422.23L147.802 428.508L150.438 426.985Z" fill="#BBBFE2"/>
<path d="M132.133 427.343C132.633 427.488 133.148 427.611 133.675 427.713C135.312 427.959 135.666 429.745 135.668 430.495L135.65 424.218C135.647 423.467 135.294 421.683 133.657 421.437C133.138 421.336 132.623 421.212 132.115 421.067C130.639 420.564 128.155 421.711 127.257 422.23L127.275 428.507C128.173 427.987 130.657 426.84 132.133 427.343Z" fill="url(#paint37_linear_107_39)"/>
<path d="M140.665 427.969C140.895 427.837 141.149 427.751 141.411 427.714C141.93 427.613 142.445 427.489 142.954 427.345C144.438 426.84 146.909 427.987 147.802 428.508L147.784 422.23C146.891 421.711 144.42 420.564 142.937 421.068C142.428 421.212 141.913 421.336 141.394 421.437C141.131 421.474 140.877 421.561 140.647 421.692C139.635 422.275 139.42 423.61 139.363 424.247L139.381 430.523C139.439 429.887 139.652 428.552 140.665 427.969H140.665Z" fill="url(#paint38_linear_107_39)"/>
<path d="M126.664 417.899C127.528 418.754 125.537 420.189 124.639 420.708L127.257 422.23C128.155 421.711 130.639 420.564 132.115 421.067C132.616 421.211 133.132 421.335 133.657 421.437C135.315 421.685 135.656 423.514 135.649 424.247H139.363C139.421 423.61 139.635 422.275 140.647 421.692C140.877 421.56 141.131 421.474 141.393 421.437C141.913 421.336 142.428 421.212 142.937 421.068C144.42 420.564 146.891 421.71 147.784 422.23L150.42 420.708C149.526 420.19 147.552 418.754 148.425 417.899C148.666 417.62 148.883 417.321 149.071 417.004C149.172 416.817 149.328 416.666 149.518 416.57C150.542 415.978 152.882 415.839 153.926 415.839L153.937 413.688C152.581 413.741 149.52 413.485 149.096 412.522C148.912 412.206 148.699 411.907 148.461 411.629C147.598 410.772 149.587 409.338 150.486 408.818L147.867 407.297C146.969 407.815 144.485 408.964 143.01 408.46C142.502 408.315 141.987 408.192 141.469 408.091C139.809 407.84 139.468 406.013 139.472 405.282L135.756 405.28C135.755 405.886 135.508 407.241 134.482 407.833C134.25 407.965 133.995 408.052 133.731 408.09C133.205 408.193 132.687 408.315 132.186 408.461C130.475 408.83 128.234 407.815 127.34 407.297L124.705 408.818C125.598 409.338 127.572 410.772 126.698 411.628C126.456 411.906 126.241 412.205 126.054 412.523C125.953 412.71 125.797 412.861 125.607 412.957C124.582 413.549 122.243 413.688 121.193 413.688L121.187 415.839C122.45 415.839 125.604 416.042 126.028 417.004C126.212 417.321 126.425 417.62 126.664 417.899ZM132.922 412.068C135.504 410.578 139.668 410.578 142.232 412.068C144.794 413.557 144.783 415.972 142.202 417.462C139.625 418.95 135.456 418.949 132.895 417.46C130.331 415.97 130.344 413.557 132.922 412.068Z" fill="#F1F1F6"/>
<path d="M124.639 420.709C125.537 420.19 127.528 418.754 126.664 417.899C126.425 417.621 126.212 417.321 126.028 417.004C125.604 416.042 122.45 415.839 121.187 415.839L121.204 422.116C122.361 422.113 123.514 422.237 124.643 422.486L124.639 420.709Z" fill="#CED2F4"/>
<path d="M139.381 430.523L139.363 424.247H135.649L135.668 430.524L139.381 430.523Z" fill="#BBBFE2"/>
<path d="M153.944 422.116L153.926 415.839C152.882 415.839 150.542 415.978 149.518 416.57C149.328 416.665 149.172 416.817 149.071 417.004C148.883 417.321 148.666 417.62 148.425 417.899C147.552 418.754 149.526 420.19 150.42 420.709L150.425 422.512C151.579 422.246 152.76 422.113 153.944 422.116Z" fill="url(#paint39_linear_107_39)"/>
<path d="M131.68 196.904V194.013H131.992V194.347H132.03C132.054 194.31 132.087 194.264 132.129 194.207C132.171 194.15 132.233 194.099 132.312 194.054C132.392 194.008 132.501 193.985 132.638 193.985C132.815 193.985 132.971 194.03 133.106 194.118C133.241 194.207 133.347 194.332 133.422 194.495C133.498 194.657 133.536 194.849 133.536 195.07C133.536 195.292 133.498 195.486 133.422 195.649C133.347 195.811 133.242 195.937 133.107 196.027C132.973 196.115 132.819 196.16 132.643 196.16C132.508 196.16 132.4 196.137 132.319 196.092C132.238 196.047 132.175 195.995 132.131 195.938C132.087 195.879 132.054 195.831 132.03 195.793H132.003V196.904H131.68ZM131.997 195.064C131.997 195.223 132.02 195.363 132.067 195.485C132.113 195.605 132.181 195.7 132.271 195.768C132.36 195.836 132.47 195.869 132.6 195.869C132.735 195.869 132.847 195.834 132.938 195.763C133.029 195.69 133.097 195.594 133.143 195.472C133.19 195.35 133.213 195.214 133.213 195.064C133.213 194.916 133.19 194.783 133.144 194.665C133.1 194.545 133.032 194.451 132.94 194.381C132.85 194.311 132.736 194.276 132.6 194.276C132.468 194.276 132.358 194.309 132.268 194.376C132.179 194.441 132.111 194.534 132.066 194.652C132.02 194.77 131.997 194.907 131.997 195.064ZM134.352 193.312V196.116H134.029V193.312H134.352ZM135.562 196.165C135.429 196.165 135.308 196.14 135.2 196.09C135.091 196.039 135.005 195.965 134.941 195.869C134.877 195.773 134.845 195.656 134.845 195.519C134.845 195.398 134.869 195.301 134.916 195.226C134.964 195.15 135.027 195.091 135.107 195.048C135.186 195.005 135.274 194.973 135.369 194.952C135.466 194.93 135.563 194.913 135.661 194.9C135.789 194.884 135.892 194.871 135.972 194.863C136.052 194.854 136.111 194.839 136.147 194.818C136.184 194.797 136.203 194.76 136.203 194.708V194.697C136.203 194.562 136.166 194.457 136.092 194.383C136.019 194.308 135.908 194.27 135.76 194.27C135.605 194.27 135.484 194.304 135.397 194.372C135.309 194.439 135.248 194.511 135.212 194.588L134.905 194.478C134.96 194.351 135.033 194.251 135.124 194.18C135.217 194.108 135.317 194.058 135.426 194.029C135.535 194 135.643 193.985 135.749 193.985C135.816 193.985 135.894 193.994 135.981 194.01C136.07 194.026 136.155 194.058 136.237 194.107C136.32 194.157 136.389 194.231 136.444 194.33C136.499 194.43 136.526 194.563 136.526 194.73V196.116H136.203V195.831H136.187C136.165 195.877 136.128 195.925 136.077 195.977C136.026 196.029 135.958 196.074 135.873 196.11C135.788 196.147 135.685 196.165 135.562 196.165ZM135.612 195.875C135.74 195.875 135.847 195.85 135.935 195.799C136.023 195.749 136.09 195.684 136.135 195.605C136.18 195.526 136.203 195.442 136.203 195.355V195.059C136.189 195.075 136.159 195.09 136.113 195.104C136.067 195.117 136.014 195.128 135.954 195.138C135.895 195.147 135.837 195.156 135.78 195.163C135.724 195.169 135.679 195.175 135.645 195.179C135.561 195.19 135.482 195.208 135.409 195.233C135.337 195.256 135.279 195.292 135.234 195.341C135.19 195.388 135.168 195.453 135.168 195.535C135.168 195.648 135.21 195.732 135.293 195.79C135.377 195.846 135.483 195.875 135.612 195.875ZM137.439 194.851V196.116H137.116V194.013H137.428V194.341H137.456C137.505 194.235 137.58 194.149 137.68 194.084C137.78 194.018 137.91 193.985 138.069 193.985C138.211 193.985 138.336 194.015 138.443 194.073C138.549 194.131 138.632 194.218 138.692 194.336C138.751 194.453 138.781 194.601 138.781 194.78V196.116H138.458V194.801C138.458 194.636 138.415 194.508 138.329 194.415C138.243 194.322 138.125 194.276 137.976 194.276C137.873 194.276 137.78 194.298 137.699 194.343C137.619 194.388 137.555 194.453 137.509 194.539C137.462 194.624 137.439 194.728 137.439 194.851ZM139.694 194.851V196.116H139.371V194.013H139.683V194.341H139.711C139.76 194.235 139.835 194.149 139.935 194.084C140.036 194.018 140.165 193.985 140.324 193.985C140.466 193.985 140.591 194.015 140.698 194.073C140.805 194.131 140.888 194.218 140.947 194.336C141.006 194.453 141.036 194.601 141.036 194.78V196.116H140.713V194.801C140.713 194.636 140.67 194.508 140.584 194.415C140.498 194.322 140.381 194.276 140.231 194.276C140.128 194.276 140.036 194.298 139.954 194.343C139.874 194.388 139.811 194.453 139.764 194.539C139.718 194.624 139.694 194.728 139.694 194.851ZM141.626 196.116V194.013H141.949V196.116H141.626ZM141.791 193.662C141.728 193.662 141.673 193.641 141.628 193.598C141.583 193.555 141.561 193.504 141.561 193.443C141.561 193.383 141.583 193.332 141.628 193.289C141.673 193.246 141.728 193.224 141.791 193.224C141.854 193.224 141.907 193.246 141.952 193.289C141.998 193.332 142.021 193.383 142.021 193.443C142.021 193.504 141.998 193.555 141.952 193.598C141.907 193.641 141.854 193.662 141.791 193.662ZM142.864 194.851V196.116H142.541V194.013H142.853V194.341H142.881C142.93 194.235 143.005 194.149 143.105 194.084C143.206 194.018 143.335 193.985 143.494 193.985C143.636 193.985 143.761 194.015 143.868 194.073C143.975 194.131 144.058 194.218 144.117 194.336C144.176 194.453 144.206 194.601 144.206 194.78V196.116H143.883V194.801C143.883 194.636 143.84 194.508 143.754 194.415C143.668 194.322 143.551 194.276 143.401 194.276C143.298 194.276 143.206 194.298 143.124 194.343C143.044 194.388 142.981 194.453 142.934 194.539C142.888 194.624 142.864 194.728 142.864 194.851ZM145.645 196.948C145.489 196.948 145.355 196.928 145.243 196.888C145.13 196.849 145.037 196.797 144.962 196.732C144.888 196.668 144.829 196.599 144.785 196.526L145.043 196.346C145.072 196.384 145.109 196.428 145.154 196.477C145.198 196.527 145.26 196.571 145.337 196.607C145.416 196.645 145.518 196.663 145.645 196.663C145.815 196.663 145.955 196.622 146.065 196.54C146.176 196.458 146.231 196.329 146.231 196.154V195.727H146.204C146.18 195.765 146.146 195.813 146.102 195.869C146.06 195.925 145.997 195.975 145.916 196.019C145.836 196.061 145.727 196.083 145.59 196.083C145.421 196.083 145.268 196.043 145.133 195.962C144.999 195.882 144.893 195.765 144.814 195.612C144.737 195.459 144.698 195.272 144.698 195.053C144.698 194.838 144.736 194.65 144.811 194.491C144.887 194.33 144.993 194.206 145.128 194.118C145.263 194.03 145.419 193.985 145.596 193.985C145.733 193.985 145.841 194.008 145.922 194.054C146.003 194.099 146.065 194.15 146.108 194.207C146.152 194.264 146.186 194.31 146.209 194.347H146.242V194.013H146.554V196.176C146.554 196.357 146.513 196.504 146.431 196.617C146.35 196.731 146.24 196.814 146.102 196.867C145.966 196.921 145.813 196.948 145.645 196.948ZM145.634 195.793C145.764 195.793 145.873 195.763 145.963 195.704C146.052 195.644 146.12 195.559 146.167 195.448C146.213 195.336 146.237 195.203 146.237 195.048C146.237 194.896 146.214 194.763 146.168 194.647C146.123 194.531 146.055 194.44 145.966 194.374C145.876 194.309 145.766 194.276 145.634 194.276C145.497 194.276 145.383 194.31 145.292 194.38C145.202 194.449 145.134 194.542 145.088 194.659C145.043 194.776 145.021 194.905 145.021 195.048C145.021 195.194 145.044 195.323 145.089 195.435C145.136 195.547 145.204 195.634 145.295 195.698C145.386 195.761 145.499 195.793 145.634 195.793ZM148.35 194.763V195.064H147.124V194.763H148.35ZM149.828 196.154C149.622 196.154 149.446 196.098 149.301 195.986C149.156 195.872 149.045 195.709 148.968 195.494C148.892 195.279 148.853 195.019 148.853 194.714C148.853 194.411 148.892 194.152 148.968 193.938C149.046 193.722 149.157 193.558 149.302 193.445C149.448 193.331 149.624 193.274 149.828 193.274C150.032 193.274 150.207 193.331 150.352 193.445C150.498 193.558 150.61 193.722 150.686 193.938C150.764 194.152 150.803 194.411 150.803 194.714C150.803 195.019 150.764 195.279 150.688 195.494C150.611 195.709 150.5 195.872 150.355 195.986C150.21 196.098 150.034 196.154 149.828 196.154ZM149.828 195.853C150.032 195.853 150.191 195.754 150.304 195.557C150.418 195.36 150.474 195.079 150.474 194.714C150.474 194.471 150.448 194.264 150.396 194.094C150.345 193.923 150.271 193.793 150.174 193.703C150.079 193.614 149.963 193.569 149.828 193.569C149.625 193.569 149.467 193.669 149.353 193.869C149.239 194.068 149.182 194.35 149.182 194.714C149.182 194.957 149.207 195.163 149.258 195.333C149.31 195.502 149.383 195.632 149.479 195.72C149.576 195.809 149.692 195.853 149.828 195.853ZM152.309 193.312V196.116H151.969V193.668H151.953L151.268 194.122V193.777L151.969 193.312H152.309Z" fill="black"/>
<defs>
<linearGradient id="paint0_linear_107_39" x1="450.24" y1="286.323" x2="498.353" y2="286.323" gradientUnits="userSpaceOnUse">
<stop stop-color="#CFD5F1"/>
<stop offset="0.283" stop-color="#E1E5F6"/>
<stop offset="0.719" stop-color="#F7F8FD"/>
<stop offset="1" stop-color="white"/>
</linearGradient>
<linearGradient id="paint1_linear_107_39" x1="303.664" y1="412.043" x2="362.873" y2="412.043" gradientUnits="userSpaceOnUse">
<stop stop-color="#CFD5F1"/>
<stop offset="0.283" stop-color="#E1E5F6"/>
<stop offset="0.719" stop-color="#F7F8FD"/>
<stop offset="1" stop-color="white"/>
</linearGradient>
<linearGradient id="paint2_linear_107_39" x1="323.797" y1="421.33" x2="357.859" y2="421.33" gradientUnits="userSpaceOnUse">
<stop stop-color="#CFD5F1"/>
<stop offset="0.283" stop-color="#E1E5F6"/>
<stop offset="0.719" stop-color="#F7F8FD"/>
<stop offset="1" stop-color="white"/>
</linearGradient>
<linearGradient id="paint3_linear_107_39" x1="80.7927" y1="330.137" x2="143.055" y2="330.137" gradientUnits="userSpaceOnUse">
<stop stop-color="#C4CAE9"/>
<stop offset="0.082" stop-color="#CACFEB"/>
<stop offset="0.684" stop-color="#F0F2FA"/>
<stop offset="1" stop-color="white"/>
</linearGradient>
<linearGradient id="paint4_linear_107_39" x1="86.6887" y1="289.89" x2="112.447" y2="289.89" gradientUnits="userSpaceOnUse">
<stop stop-color="#CFD5F1"/>
<stop offset="0.283" stop-color="#E1E5F6"/>
<stop offset="0.719" stop-color="#F7F8FD"/>
<stop offset="1" stop-color="white"/>
</linearGradient>
<linearGradient id="paint5_linear_107_39" x1="161.705" y1="164.518" x2="212.538" y2="252.563" gradientUnits="userSpaceOnUse">
<stop offset="0.455" stop-color="#FF826A"/>
<stop offset="0.512" stop-color="#F87066"/>
<stop offset="0.626" stop-color="#E5405D"/>
<stop offset="0.635" stop-color="#E33C5C"/>
</linearGradient>
<linearGradient id="paint6_linear_107_39" x1="196.85" y1="301.539" x2="500.861" y2="301.539" gradientUnits="userSpaceOnUse">
<stop stop-color="#C4C9E4"/>
<stop offset="0.236" stop-color="#CACEE7"/>
<stop offset="0.541" stop-color="#DADDEE"/>
<stop offset="0.881" stop-color="#F4F5FA"/>
<stop offset="1" stop-color="white"/>
</linearGradient>
<linearGradient id="paint7_linear_107_39" x1="329.774" y1="93.9122" x2="450.825" y2="303.58" gradientUnits="userSpaceOnUse">
<stop offset="0.576" stop-color="#807CFB"/>
<stop offset="0.612" stop-color="#1F196F"/>
</linearGradient>
<linearGradient id="paint8_linear_107_39" x1="190.267" y1="327.93" x2="436.327" y2="327.93" gradientUnits="userSpaceOnUse">
<stop offset="0.562" stop-color="#5652CC"/>
<stop offset="0.612" stop-color="#1F196F"/>
</linearGradient>
<linearGradient id="paint9_linear_107_39" x1="391.412" y1="370.869" x2="483.218" y2="370.869" gradientUnits="userSpaceOnUse">
<stop stop-color="#DAE0F5"/>
<stop offset="0.327" stop-color="#DEE3F6"/>
<stop offset="0.66" stop-color="#EAEEF9"/>
<stop offset="0.996" stop-color="white"/>
<stop offset="1" stop-color="white"/>
</linearGradient>
<linearGradient id="paint10_linear_107_39" x1="472.265" y1="342.364" x2="476.083" y2="348.703" gradientUnits="userSpaceOnUse">
<stop stop-color="#6B67E9"/>
<stop offset="1" stop-color="#362E93"/>
</linearGradient>
<linearGradient id="paint11_linear_107_39" x1="395.804" y1="394.337" x2="392.216" y2="388.042" gradientUnits="userSpaceOnUse">
<stop stop-color="#BBC0E6"/>
<stop offset="1" stop-color="#F6F6FB"/>
</linearGradient>
<linearGradient id="paint12_linear_107_39" x1="389.791" y1="395.408" x2="388.28" y2="393.456" gradientUnits="userSpaceOnUse">
<stop stop-color="#362E93"/>
<stop offset="1" stop-color="#807CFB"/>
</linearGradient>
<linearGradient id="paint13_linear_107_39" x1="470.328" y1="351.939" x2="466.138" y2="344.894" gradientUnits="userSpaceOnUse">
<stop offset="0.074" stop-color="#A3A9D0"/>
<stop offset="0.137" stop-color="#CED3F8"/>
<stop offset="0.559" stop-color="#CED3F8"/>
<stop offset="0.69" stop-color="#F6F6FB"/>
</linearGradient>
<linearGradient id="paint14_linear_107_39" x1="468.077" y1="353.539" x2="462.868" y2="346.922" gradientUnits="userSpaceOnUse">
<stop offset="0.559" stop-color="#D1D7F3"/>
<stop offset="0.69" stop-color="#F1F1F6"/>
</linearGradient>
<linearGradient id="paint15_linear_107_39" x1="469.095" y1="352.951" x2="463.886" y2="346.333" gradientUnits="userSpaceOnUse">
<stop offset="0.559" stop-color="#D1D7F3"/>
<stop offset="0.69" stop-color="#F1F1F6"/>
</linearGradient>
<linearGradient id="paint16_linear_107_39" x1="470.115" y1="352.362" x2="464.906" y2="345.745" gradientUnits="userSpaceOnUse">
<stop offset="0.559" stop-color="#D1D7F3"/>
<stop offset="0.69" stop-color="#F1F1F6"/>
</linearGradient>
<linearGradient id="paint17_linear_107_39" x1="164.749" y1="324.184" x2="268.18" y2="292.381" gradientUnits="userSpaceOnUse">
<stop stop-color="#5652CC"/>
<stop offset="1" stop-color="#807DFB"/>
</linearGradient>
<linearGradient id="paint18_linear_107_39" x1="279.49" y1="372.428" x2="192.297" y2="221.405" gradientUnits="userSpaceOnUse">
<stop offset="0.396" stop-color="#20196F"/>
<stop offset="0.479" stop-color="#362E94"/>
</linearGradient>
<linearGradient id="paint19_linear_107_39" x1="177.351" y1="380.854" x2="200.928" y2="380.854" gradientUnits="userSpaceOnUse">
<stop stop-color="#C6CBE7"/>
<stop offset="0.077" stop-color="#CED2EA"/>
<stop offset="0.398" stop-color="#E9EBF6"/>
<stop offset="0.682" stop-color="#F9FAFD"/>
<stop offset="0.899" stop-color="white"/>
</linearGradient>
<linearGradient id="paint20_linear_107_39" x1="166.72" y1="374.596" x2="190.298" y2="374.596" gradientUnits="userSpaceOnUse">
<stop stop-color="#C6CBE7"/>
<stop offset="0.077" stop-color="#CED2EA"/>
<stop offset="0.398" stop-color="#E9EBF6"/>
<stop offset="0.682" stop-color="#F9FAFD"/>
<stop offset="0.899" stop-color="white"/>
</linearGradient>
<linearGradient id="paint21_linear_107_39" x1="172.802" y1="373.767" x2="164.112" y2="373.767" gradientUnits="userSpaceOnUse">
<stop stop-color="#6A6AE2"/>
<stop offset="0.284" stop-color="#5857C7"/>
<stop offset="0.756" stop-color="#3E3C9E"/>
<stop offset="1" stop-color="#34318F"/>
</linearGradient>
<linearGradient id="paint22_linear_107_39" x1="183.548" y1="380.022" x2="174.857" y2="380.022" gradientUnits="userSpaceOnUse">
<stop stop-color="#6A6AE2"/>
<stop offset="0.284" stop-color="#5857C7"/>
<stop offset="0.756" stop-color="#3E3C9E"/>
<stop offset="1" stop-color="#34318F"/>
</linearGradient>
<linearGradient id="paint23_linear_107_39" x1="179.775" y1="359.256" x2="164.834" y2="359.256" gradientUnits="userSpaceOnUse">
<stop stop-color="#3366A3"/>
<stop offset="0.016" stop-color="#4A5ABB"/>
<stop offset="0.027" stop-color="#5555C6"/>
<stop offset="1" stop-color="#1E1C6B"/>
</linearGradient>
<linearGradient id="paint24_linear_107_39" x1="180.352" y1="332.443" x2="164.745" y2="332.443" gradientUnits="userSpaceOnUse">
<stop stop-color="#E33C5C"/>
<stop offset="0.156" stop-color="#E4425D"/>
<stop offset="0.36" stop-color="#E8525F"/>
<stop offset="0.591" stop-color="#EF6D63"/>
<stop offset="0.84" stop-color="#F89369"/>
<stop offset="1" stop-color="#FFAF6D"/>
</linearGradient>
<linearGradient id="paint25_linear_107_39" x1="175.91" y1="325.982" x2="198.757" y2="313.302" gradientUnits="userSpaceOnUse">
<stop stop-color="#FF5A72"/>
<stop offset="0.407" stop-color="#FC5770"/>
<stop offset="0.711" stop-color="#F34D69"/>
<stop offset="0.981" stop-color="#E43D5D"/>
<stop offset="1" stop-color="#E33C5C"/>
</linearGradient>
<linearGradient id="paint26_linear_107_39" x1="251.838" y1="143.387" x2="216.261" y2="205.418" gradientUnits="userSpaceOnUse">
<stop stop-color="#00B6BF"/>
<stop offset="0.199" stop-color="#00ADB8"/>
<stop offset="0.63" stop-color="#009FAE"/>
<stop offset="1" stop-color="#009AAA"/>
</linearGradient>
<linearGradient id="paint27_linear_107_39" x1="71.7667" y1="365.903" x2="134.334" y2="365.903" gradientUnits="userSpaceOnUse">
<stop stop-color="#C4C9E4"/>
<stop offset="0.254" stop-color="#CED2E8"/>
<stop offset="0.677" stop-color="#E7E9F4"/>
<stop offset="1" stop-color="white"/>
</linearGradient>
<linearGradient id="paint28_linear_107_39" x1="118.938" y1="370.318" x2="56.3791" y2="370.319" gradientUnits="userSpaceOnUse">
<stop offset="0.409" stop-color="#BBC0E6"/>
<stop offset="0.413" stop-color="#BCC1E7"/>
<stop offset="0.565" stop-color="#CED3F8"/>
</linearGradient>
<linearGradient id="paint29_linear_107_39" x1="118.938" y1="370.699" x2="56.3789" y2="370.7" gradientUnits="userSpaceOnUse">
<stop offset="0.409" stop-color="#5652CC"/>
<stop offset="0.496" stop-color="#706CE9"/>
<stop offset="0.565" stop-color="#807DFB"/>
</linearGradient>
<linearGradient id="paint30_linear_107_39" x1="205.762" y1="416.83" x2="273.112" y2="416.83" gradientUnits="userSpaceOnUse">
<stop stop-color="#C4C9E4"/>
<stop offset="0.254" stop-color="#CED2E8"/>
<stop offset="0.677" stop-color="#E7E9F4"/>
<stop offset="1" stop-color="white"/>
</linearGradient>
<linearGradient id="paint31_linear_107_39" x1="268.808" y1="425.176" x2="201.462" y2="425.178" gradientUnits="userSpaceOnUse">
<stop offset="0.409" stop-color="#BBC0E6"/>
<stop offset="0.413" stop-color="#BCC1E7"/>
<stop offset="0.565" stop-color="#CED3F8"/>
</linearGradient>
<linearGradient id="paint32_linear_107_39" x1="229.916" y1="457.474" x2="239.089" y2="409.817" gradientUnits="userSpaceOnUse">
<stop offset="0.409" stop-color="#BBC0E6"/>
<stop offset="0.565" stop-color="#C4CAE9"/>
</linearGradient>
<linearGradient id="paint33_linear_107_39" x1="224.637" y1="433.55" x2="228.877" y2="411.52" gradientUnits="userSpaceOnUse">
<stop offset="0.409" stop-color="#BBC0E6"/>
<stop offset="0.565" stop-color="#C4CAE9"/>
</linearGradient>
<linearGradient id="paint34_linear_107_39" x1="236.716" y1="428.021" x2="238.618" y2="418.138" gradientUnits="userSpaceOnUse">
<stop offset="0.409" stop-color="#BBC0E6"/>
<stop offset="0.565" stop-color="#C4CAE9"/>
</linearGradient>
<linearGradient id="paint35_linear_107_39" x1="121.187" y1="421.046" x2="164.828" y2="421.046" gradientUnits="userSpaceOnUse">
<stop offset="0.331" stop-color="#C4C9E5"/>
<stop offset="0.584" stop-color="#D7DBED"/>
<stop offset="1" stop-color="white"/>
</linearGradient>
<linearGradient id="paint36_linear_107_39" x1="130.98" y1="416.005" x2="144.165" y2="416.005" gradientUnits="userSpaceOnUse">
<stop stop-color="#BBBFE2"/>
<stop offset="1" stop-color="#DCE0F7"/>
</linearGradient>
<linearGradient id="paint37_linear_107_39" x1="127.257" y1="425.719" x2="135.668" y2="425.719" gradientUnits="userSpaceOnUse">
<stop stop-color="#BBBFE2"/>
<stop offset="1" stop-color="#CED2F4"/>
</linearGradient>
<linearGradient id="paint38_linear_107_39" x1="147.39" y1="425.647" x2="139.31" y2="425.771" gradientUnits="userSpaceOnUse">
<stop stop-color="#CED2F4"/>
<stop offset="1" stop-color="#BBBFE2"/>
</linearGradient>
<linearGradient id="paint39_linear_107_39" x1="148.208" y1="419.175" x2="153.944" y2="419.175" gradientUnits="userSpaceOnUse">
<stop offset="0.404" stop-color="#BBBFE2"/>
<stop offset="1" stop-color="#CED2F4"/>
</linearGradient>
</defs>
</svg>
