<svg width="530" height="225" viewBox="0 0 530 225" fill="none" xmlns="http://www.w3.org/2000/svg">
<path d="M204.52 95.176C209.555 96.1147 213.693 98.632 216.936 102.728C220.179 106.824 221.8 111.517 221.8 116.808C221.8 121.587 220.605 125.811 218.216 129.48C215.912 133.064 212.541 135.88 208.104 137.928C203.667 139.976 198.419 141 192.36 141H153.832V51.656H190.696C196.755 51.656 201.96 52.6373 206.312 54.6C210.749 56.5627 214.077 59.2933 216.296 62.792C218.6 66.2907 219.752 70.2587 219.752 74.696C219.752 79.9013 218.344 84.2533 215.528 87.752C212.797 91.2507 209.128 93.7253 204.52 95.176ZM171.752 88.52H188.136C192.403 88.52 195.688 87.5813 197.992 85.704C200.296 83.7413 201.448 80.968 201.448 77.384C201.448 73.8 200.296 71.0267 197.992 69.064C195.688 67.1013 192.403 66.12 188.136 66.12H171.752V88.52ZM189.8 126.408C194.152 126.408 197.523 125.384 199.912 123.336C202.387 121.288 203.624 118.387 203.624 114.632C203.624 110.792 202.344 107.805 199.784 105.672C197.224 103.453 193.768 102.344 189.416 102.344H171.752V126.408H189.8ZM294.322 104.008C294.322 106.568 294.151 108.872 293.81 110.92H241.97C242.397 116.04 244.189 120.051 247.346 122.952C250.503 125.853 254.386 127.304 258.994 127.304C265.65 127.304 270.386 124.445 273.202 118.728H292.53C290.482 125.555 286.557 131.187 280.754 135.624C274.951 139.976 267.826 142.152 259.378 142.152C252.551 142.152 246.407 140.659 240.946 137.672C235.57 134.6 231.346 130.291 228.274 124.744C225.287 119.197 223.794 112.797 223.794 105.544C223.794 98.2053 225.287 91.7627 228.274 86.216C231.261 80.6693 235.442 76.4027 240.818 73.416C246.194 70.4293 252.381 68.936 259.378 68.936C266.119 68.936 272.135 70.3867 277.426 73.288C282.802 76.1893 286.941 80.328 289.842 85.704C292.829 90.9947 294.322 97.096 294.322 104.008ZM275.762 98.888C275.677 94.28 274.013 90.6107 270.77 87.88C267.527 85.064 263.559 83.656 258.866 83.656C254.429 83.656 250.674 85.0213 247.602 87.752C244.615 90.3973 242.781 94.1093 242.098 98.888H275.762ZM365.642 104.008C365.642 106.568 365.471 108.872 365.13 110.92H313.29C313.717 116.04 315.509 120.051 318.666 122.952C321.823 125.853 325.706 127.304 330.314 127.304C336.97 127.304 341.706 124.445 344.522 118.728H363.85C361.802 125.555 357.877 131.187 352.074 135.624C346.271 139.976 339.146 142.152 330.698 142.152C323.871 142.152 317.727 140.659 312.266 137.672C306.89 134.6 302.666 130.291 299.594 124.744C296.607 119.197 295.114 112.797 295.114 105.544C295.114 98.2053 296.607 91.7627 299.594 86.216C302.581 80.6693 306.762 76.4027 312.138 73.416C317.514 70.4293 323.701 68.936 330.698 68.936C337.439 68.936 343.455 70.3867 348.746 73.288C354.122 76.1893 358.261 80.328 361.162 85.704C364.149 90.9947 365.642 97.096 365.642 104.008ZM347.082 98.888C346.997 94.28 345.333 90.6107 342.09 87.88C338.847 85.064 334.879 83.656 330.186 83.656C325.749 83.656 321.994 85.0213 318.922 87.752C315.935 90.3973 314.101 94.1093 313.418 98.888H347.082ZM398.178 142.152C392.375 142.152 387.17 141.128 382.562 139.08C377.954 136.947 374.285 134.088 371.554 130.504C368.909 126.92 367.458 122.952 367.202 118.6H385.25C385.591 121.331 386.914 123.592 389.218 125.384C391.607 127.176 394.551 128.072 398.05 128.072C401.463 128.072 404.109 127.389 405.986 126.024C407.949 124.659 408.93 122.909 408.93 120.776C408.93 118.472 407.735 116.765 405.346 115.656C403.042 114.461 399.33 113.181 394.21 111.816C388.919 110.536 384.567 109.213 381.154 107.848C377.826 106.483 374.925 104.392 372.45 101.576C370.061 98.76 368.866 94.9627 368.866 90.184C368.866 86.2587 369.975 82.6747 372.194 79.432C374.498 76.1893 377.741 73.6293 381.922 71.752C386.189 69.8747 391.181 68.936 396.898 68.936C405.346 68.936 412.087 71.0693 417.122 75.336C422.157 79.5173 424.93 85.192 425.442 92.36H408.29C408.034 89.544 406.839 87.3253 404.706 85.704C402.658 83.9973 399.885 83.144 396.386 83.144C393.143 83.144 390.626 83.7413 388.834 84.936C387.127 86.1307 386.274 87.7947 386.274 89.928C386.274 92.3173 387.469 94.152 389.858 95.432C392.247 96.6267 395.959 97.864 400.994 99.144C406.114 100.424 410.338 101.747 413.666 103.112C416.994 104.477 419.853 106.611 422.242 109.512C424.717 112.328 425.997 116.083 426.082 120.776C426.082 124.872 424.93 128.541 422.626 131.784C420.407 135.027 417.165 137.587 412.898 139.464C408.717 141.256 403.81 142.152 398.178 142.152Z" fill="url(#paint0_linear_5_9)"/>
<path d="M47.3657 41L29.2314 72.2624L37.8926 86.8156H49.8017L41.1405 71.4539L52.7789 50.7021H77.1384L89.5888 71.4539L69.2893 108.915L74.1612 117.809L101.227 71.4539L83.905 41H47.3657Z" fill="url(#paint1_linear_5_9)"/>
<path d="M66.0413 101.638L70.1012 93.0142H17.8636L0 123.738L17.8636 153.383H52.7789L61.1694 139.638L55.4855 130.206L46.8244 144.489H22.7355L10.5558 123.738L22.7355 101.638H66.0413Z" fill="url(#paint2_linear_5_9)"/>
<path d="M51.4256 108.915H61.1694L82.8223 144.489H107.994L120.174 123.738L107.994 101.638H90.6715L95.5434 93.0142H113.678L131 124.816L113.678 155H78.2211L51.4256 108.915Z" fill="url(#paint3_linear_5_9)"/>
<defs>
<linearGradient id="paint0_linear_5_9" x1="408" y1="-15.5" x2="224.5" y2="168" gradientUnits="userSpaceOnUse">
<stop offset="0.0200961" stop-color="#EBE62C"/>
<stop offset="1" stop-color="#FC980F"/>
</linearGradient>
<linearGradient id="paint1_linear_5_9" x1="-1.12823e-06" y1="41.2695" x2="144.825" y2="164.236" gradientUnits="userSpaceOnUse">
<stop stop-color="#369AE6"/>
<stop offset="1" stop-color="#33B2BB"/>
</linearGradient>
<linearGradient id="paint2_linear_5_9" x1="-1.12823e-06" y1="41.2695" x2="144.825" y2="164.236" gradientUnits="userSpaceOnUse">
<stop stop-color="#369AE6"/>
<stop offset="1" stop-color="#33B2BB"/>
</linearGradient>
<linearGradient id="paint3_linear_5_9" x1="-1.12823e-06" y1="41.2695" x2="144.825" y2="164.236" gradientUnits="userSpaceOnUse">
<stop stop-color="#369AE6"/>
<stop offset="1" stop-color="#33B2BB"/>
</linearGradient>
</defs>
</svg>
